<svg width="2062" height="2062" viewBox="0 0 2062 2062" fill="none" xmlns="http://www.w3.org/2000/svg">
<g clip-path="url(#clip0_210_146)">
<rect width="2061.32" height="2061.32" rx="200" fill="#020132"/>
<path d="M179.658 1309.93C178.291 1321.62 173.965 1330.65 166.679 1337.03C159.443 1343.36 149.804 1346.52 137.761 1346.52C124.706 1346.52 114.232 1341.84 106.338 1332.48C98.495 1323.12 94.5735 1310.59 94.5735 1294.91V1284.28C94.5735 1274.01 96.3951 1264.98 100.038 1257.18C103.732 1249.39 108.944 1243.42 115.674 1239.27C122.404 1235.07 130.196 1232.97 139.051 1232.97C150.79 1232.97 160.202 1236.26 167.286 1242.84C174.37 1249.37 178.494 1258.42 179.658 1270.01H165.009C163.744 1261.21 160.986 1254.83 156.736 1250.88C152.536 1246.94 146.641 1244.96 139.051 1244.96C129.741 1244.96 122.429 1248.4 117.116 1255.29C111.853 1262.17 109.222 1271.96 109.222 1284.66V1295.36C109.222 1307.35 111.727 1316.89 116.736 1323.98C121.746 1331.06 128.754 1334.6 137.761 1334.6C145.857 1334.6 152.055 1332.78 156.356 1329.14C160.708 1325.44 163.592 1319.04 165.009 1309.93H179.658ZM214.268 1333.08H266.639V1345H199.619V1234.49H214.268V1333.08ZM356.961 1234.49V1309.63C356.91 1320.05 353.621 1328.58 347.094 1335.21C340.617 1341.84 331.812 1345.56 320.68 1346.37L316.81 1346.52C304.716 1346.52 295.077 1343.25 287.891 1336.73C280.706 1330.2 277.063 1321.22 276.962 1309.78V1234.49H291.383V1309.33C291.383 1317.32 293.584 1323.55 297.986 1328C302.388 1332.4 308.663 1334.6 316.81 1334.6C325.057 1334.6 331.357 1332.4 335.709 1328C340.111 1323.6 342.312 1317.4 342.312 1309.4V1234.49H356.961ZM379.959 1345V1234.49H416.087C428.079 1234.49 437.086 1236.97 443.108 1241.93C449.18 1246.89 452.216 1254.22 452.216 1263.94C452.216 1269.1 450.748 1273.68 447.813 1277.68C444.879 1281.62 440.881 1284.68 435.821 1286.86C441.792 1288.53 446.498 1291.72 449.939 1296.42C453.43 1301.08 455.176 1306.65 455.176 1313.12C455.176 1323.04 451.963 1330.83 445.536 1336.5C439.11 1342.17 430.027 1345 418.288 1345H379.959ZM394.531 1293.31V1333.08H418.592C425.372 1333.08 430.711 1331.34 434.607 1327.85C438.554 1324.3 440.527 1319.45 440.527 1313.27C440.527 1299.97 433.291 1293.31 418.82 1293.31H394.531ZM394.531 1281.62H416.543C422.918 1281.62 428.003 1280.03 431.798 1276.84C435.644 1273.65 437.567 1269.33 437.567 1263.86C437.567 1257.79 435.796 1253.39 432.254 1250.66C428.712 1247.87 423.323 1246.48 416.087 1246.48H394.531V1281.62ZM600.373 1293.31C600.373 1304.14 598.551 1313.6 594.908 1321.7C591.265 1329.74 586.104 1335.89 579.425 1340.14C572.745 1344.39 564.953 1346.52 556.047 1346.52C547.344 1346.52 539.627 1344.39 532.898 1340.14C526.168 1335.84 520.931 1329.74 517.186 1321.85C513.492 1313.91 511.595 1304.72 511.494 1294.3V1286.33C511.494 1275.7 513.341 1266.32 517.034 1258.17C520.728 1250.02 525.94 1243.8 532.67 1239.5C539.45 1235.15 547.192 1232.97 555.895 1232.97C564.75 1232.97 572.543 1235.12 579.273 1239.42C586.053 1243.67 591.265 1249.87 594.908 1258.02C598.551 1266.11 600.373 1275.55 600.373 1286.33V1293.31ZM585.876 1286.18C585.876 1273.07 583.245 1263.03 577.982 1256.04C572.72 1249.01 565.358 1245.49 555.895 1245.49C546.686 1245.49 539.425 1249.01 534.112 1256.04C528.85 1263.03 526.143 1272.74 525.991 1285.19V1293.31C525.991 1306.01 528.647 1316.01 533.96 1323.29C539.324 1330.53 546.686 1334.15 556.047 1334.15C565.459 1334.15 572.745 1330.73 577.907 1323.9C583.068 1317.02 585.724 1307.18 585.876 1294.37V1286.18ZM683.18 1296.2H636.805V1345H622.232V1234.49H690.694V1246.48H636.805V1284.28H683.18V1296.2ZM746.709 1345V1234.49H777.904C787.518 1234.49 796.019 1236.61 803.406 1240.86C810.794 1245.12 816.486 1251.16 820.484 1259C824.532 1266.85 826.581 1275.85 826.632 1286.03V1293.08C826.632 1303.51 824.608 1312.64 820.56 1320.48C816.562 1328.33 810.819 1334.35 803.33 1338.55C795.892 1342.75 787.214 1344.9 777.297 1345H746.709ZM761.282 1246.48V1333.08H776.614C787.847 1333.08 796.575 1329.59 802.799 1322.61C809.074 1315.63 812.211 1305.68 812.211 1292.78V1286.33C812.211 1273.78 809.251 1264.04 803.33 1257.11C797.461 1250.12 789.112 1246.58 778.283 1246.48H761.282ZM908.073 1316.16H861.774L851.375 1345H836.347L878.548 1234.49H891.299L933.575 1345H918.623L908.073 1316.16ZM866.176 1304.17H903.747L884.923 1252.48L866.176 1304.17ZM1014.94 1246.48H979.419V1345H964.922V1246.48H929.477V1234.49H1014.94V1246.48ZM1086.29 1316.16H1039.99L1029.59 1345H1014.56L1056.76 1234.49H1069.51L1111.79 1345H1096.84L1086.29 1316.16ZM1044.39 1304.17H1081.96L1063.14 1252.48L1044.39 1304.17ZM1227.69 1293.92H1179.8V1333.08H1235.43V1345H1165.22V1234.49H1234.67V1246.48H1179.8V1282H1227.69V1293.92ZM1338.5 1345H1323.85L1268.22 1259.84V1345H1253.57V1234.49H1268.22L1324.01 1320.03V1234.49H1338.5V1345ZM1445.98 1330.5C1442.23 1335.87 1437 1339.89 1430.27 1342.57C1423.59 1345.2 1415.8 1346.52 1406.89 1346.52C1397.88 1346.52 1389.89 1344.42 1382.91 1340.22C1375.92 1335.97 1370.51 1329.95 1366.66 1322.15C1362.87 1314.36 1360.92 1305.33 1360.82 1295.06V1285.42C1360.82 1268.77 1364.69 1255.87 1372.43 1246.71C1380.22 1237.55 1391.15 1232.97 1405.22 1232.97C1416.76 1232.97 1426.04 1235.93 1433.08 1241.85C1440.11 1247.72 1444.41 1256.07 1445.98 1266.9H1431.41C1428.67 1252.28 1419.97 1244.96 1405.3 1244.96C1395.53 1244.96 1388.12 1248.4 1383.06 1255.29C1378.05 1262.12 1375.52 1272.03 1375.47 1285.04V1294.07C1375.47 1306.47 1378.3 1316.33 1383.97 1323.67C1389.63 1330.96 1397.3 1334.6 1406.97 1334.6C1412.43 1334.6 1417.21 1333.99 1421.31 1332.78C1425.41 1331.57 1428.8 1329.52 1431.48 1326.63V1301.81H1405.9V1289.97H1445.98V1330.5ZM1485.98 1345H1471.4V1234.49H1485.98V1345ZM1597.63 1345H1582.98L1527.34 1259.84V1345H1512.69V1234.49H1527.34L1583.13 1320.03V1234.49H1597.63V1345ZM1685.97 1293.92H1638.08V1333.08H1693.72V1345H1623.51V1234.49H1692.96V1246.48H1638.08V1282H1685.97V1293.92ZM1774.32 1293.92H1726.43V1333.08H1782.06V1345H1711.86V1234.49H1781.31V1246.48H1726.43V1282H1774.32V1293.92ZM1840.74 1300.29H1814.78V1345H1800.13V1234.49H1836.71C1849.16 1234.49 1858.72 1237.32 1865.4 1242.99C1872.13 1248.66 1875.5 1256.91 1875.5 1267.73C1875.5 1274.62 1873.63 1280.61 1869.88 1285.72C1866.19 1290.83 1861.03 1294.65 1854.4 1297.18L1880.36 1344.09V1345H1864.72L1840.74 1300.29ZM1814.78 1288.38H1837.17C1844.4 1288.38 1850.15 1286.51 1854.4 1282.76C1858.7 1279.02 1860.85 1274.01 1860.85 1267.73C1860.85 1260.9 1858.8 1255.67 1854.7 1252.02C1850.65 1248.38 1844.78 1246.53 1837.09 1246.48H1814.78V1288.38ZM1928.55 1295.74C1916.05 1292.15 1906.95 1287.75 1901.23 1282.53C1895.56 1277.27 1892.73 1270.79 1892.73 1263.1C1892.73 1254.4 1896.19 1247.22 1903.13 1241.55C1910.11 1235.83 1919.17 1232.97 1930.3 1232.97C1937.89 1232.97 1944.64 1234.44 1950.56 1237.37C1956.53 1240.31 1961.14 1244.36 1964.38 1249.52C1967.67 1254.68 1969.31 1260.32 1969.31 1266.44H1954.66C1954.66 1259.76 1952.54 1254.53 1948.29 1250.73C1944.04 1246.89 1938.04 1244.96 1930.3 1244.96C1923.11 1244.96 1917.5 1246.56 1913.45 1249.75C1909.45 1252.88 1907.45 1257.26 1907.45 1262.88C1907.45 1267.38 1909.35 1271.2 1913.14 1274.34C1916.99 1277.42 1923.49 1280.26 1932.65 1282.84C1941.86 1285.42 1949.05 1288.28 1954.21 1291.41C1959.42 1294.5 1963.26 1298.12 1965.74 1302.27C1968.27 1306.42 1969.54 1311.3 1969.54 1316.92C1969.54 1325.87 1966.05 1333.06 1959.06 1338.47C1952.08 1343.84 1942.75 1346.52 1931.06 1346.52C1923.47 1346.52 1916.38 1345.08 1909.8 1342.19C1903.23 1339.26 1898.14 1335.26 1894.55 1330.2C1891.01 1325.14 1889.24 1319.4 1889.24 1312.97H1903.88C1903.88 1319.65 1906.34 1324.94 1911.25 1328.83C1916.21 1332.68 1922.81 1334.6 1931.06 1334.6C1938.75 1334.6 1944.64 1333.03 1948.74 1329.9C1952.84 1326.76 1954.89 1322.48 1954.89 1317.07C1954.89 1311.65 1952.99 1307.48 1949.2 1304.55C1945.4 1301.56 1938.52 1298.62 1928.55 1295.74Z" fill="white"/>
<path d="M48.5239 1432.98C45.6439 1428.36 40.5139 1426.3 35.2639 1426.3C27.6639 1426.3 19.7439 1429.9 19.7439 1438.53C19.7439 1445.21 23.4439 1448.19 35.0539 1451.89C46.3539 1455.49 56.8339 1459.18 56.8339 1473.47C56.8339 1487.96 44.4039 1494.74 31.2439 1494.74C22.8239 1494.74 13.7739 1491.97 8.84387 1484.67L16.2439 1478.61C19.3239 1483.95 25.4939 1486.73 31.7539 1486.73C39.1539 1486.73 47.5739 1482.42 47.5739 1474.09C47.5739 1465.15 41.5139 1463.61 28.5639 1459.29C18.2939 1455.9 10.4839 1451.38 10.4839 1439.25C10.4839 1425.28 22.5039 1418.29 35.2439 1418.29C43.3639 1418.29 50.2439 1420.55 55.5939 1426.82L48.5239 1432.98Z" fill="#5999D2"/>
<path d="M128.974 1435.14C124.654 1429.28 117.774 1426.3 110.784 1426.3C94.5539 1426.3 83.0439 1440.58 83.0439 1456.51C83.0439 1473.36 94.4539 1486.72 110.784 1486.72C119.624 1486.72 126.714 1483.12 131.844 1476.55L138.314 1482C131.844 1490.73 122.384 1494.74 110.774 1494.74C89.9139 1494.74 73.7839 1478.61 73.7839 1456.52C73.7839 1435.15 89.1939 1418.3 110.774 1418.3C120.634 1418.3 130.294 1421.69 136.464 1429.7L128.974 1435.14Z" fill="#5999D2"/>
<path d="M157.234 1420.14H165.864V1450.97H204.704V1420.14H213.334V1492.89H204.704V1458.98H165.864V1492.89H157.234V1420.14Z" fill="#5999D2"/>
<path d="M234.084 1456.51C234.084 1434.52 250.014 1418.29 272.104 1418.29C294.194 1418.29 310.124 1434.52 310.124 1456.51C310.124 1478.5 294.194 1494.73 272.104 1494.73C250.014 1494.73 234.084 1478.5 234.084 1456.51ZM300.874 1456.51C300.874 1439.76 289.164 1426.3 272.104 1426.3C255.044 1426.3 243.334 1439.76 243.334 1456.51C243.334 1473.26 255.044 1486.72 272.104 1486.72C289.154 1486.72 300.874 1473.26 300.874 1456.51Z" fill="#5999D2"/>
<path d="M326.654 1456.51C326.654 1434.52 342.584 1418.29 364.674 1418.29C386.764 1418.29 402.694 1434.52 402.694 1456.51C402.694 1478.5 386.764 1494.73 364.674 1494.73C342.584 1494.73 326.654 1478.5 326.654 1456.51ZM393.444 1456.51C393.444 1439.76 381.734 1426.3 364.674 1426.3C347.614 1426.3 335.904 1439.76 335.904 1456.51C335.904 1473.26 347.614 1486.72 364.674 1486.72C381.734 1486.72 393.444 1473.26 393.444 1456.51Z" fill="#5999D2"/>
<path d="M423.444 1420.14H432.074V1484.87H465.364V1492.89H423.444V1420.14Z" fill="#5999D2"/>
<path d="M512.934 1456.51C512.934 1434.52 528.864 1418.29 550.954 1418.29C573.044 1418.29 588.974 1434.52 588.974 1456.51C588.974 1478.5 573.044 1494.73 550.954 1494.73C528.864 1494.73 512.934 1478.5 512.934 1456.51ZM579.724 1456.51C579.724 1439.76 568.014 1426.3 550.954 1426.3C533.894 1426.3 522.184 1439.76 522.184 1456.51C522.184 1473.26 533.894 1486.72 550.954 1486.72C568.014 1486.72 579.724 1473.26 579.724 1456.51Z" fill="#5999D2"/>
<path d="M609.724 1420.14H654.834V1428.15H618.354V1452.2H652.264V1460.21H618.354V1492.89H609.724V1420.14Z" fill="#5999D2"/>
<path d="M717.814 1420.14H709.184V1492.89H717.814V1420.14Z" fill="#5999D2"/>
<path d="M742.784 1420.14H753.674L795.804 1480.56H796.004V1420.14H804.634V1492.89H793.744L751.624 1432.47H751.414V1492.89H742.784V1420.14Z" fill="#5999D2"/>
<path d="M829.604 1420.14H874.714V1428.15H838.234V1452.2H872.144V1460.21H838.234V1492.89H829.604V1420.14Z" fill="#5999D2"/>
<path d="M889.404 1456.51C889.404 1434.52 905.334 1418.29 927.424 1418.29C949.514 1418.29 965.444 1434.52 965.444 1456.51C965.444 1478.5 949.514 1494.73 927.424 1494.73C905.334 1494.74 889.404 1478.5 889.404 1456.51ZM956.194 1456.51C956.194 1439.76 944.484 1426.3 927.424 1426.3C910.364 1426.3 898.654 1439.76 898.654 1456.51C898.654 1473.26 910.364 1486.72 927.424 1486.72C944.474 1486.72 956.194 1473.26 956.194 1456.51Z" fill="#5999D2"/>
<path d="M986.194 1420.14H1004.79C1018.87 1420.14 1033.76 1422.19 1033.76 1440.18C1033.76 1450.76 1026.88 1457.65 1015.57 1459.39L1036.22 1492.89H1025.64L1005.91 1460.22H994.814V1492.89H986.184V1420.14H986.194ZM994.824 1452.2H1002.53C1012.09 1452.2 1024.52 1452.2 1024.52 1440.18C1024.52 1429.7 1015.37 1428.16 1006.95 1428.16H994.834V1452.2H994.824Z" fill="#5999D2"/>
<path d="M1055.85 1420.14H1068.69L1093.35 1477.17H1093.56L1118.42 1420.14H1130.96V1492.89H1122.33V1431.85H1122.12L1096.02 1492.89H1090.78L1064.69 1431.85H1064.48V1492.89H1055.85V1420.14Z" fill="#5999D2"/>
<path d="M1179.56 1420.14H1187.68L1218.61 1492.89H1208.54L1201.14 1475.01H1164.77L1157.27 1492.89H1147.51L1179.56 1420.14ZM1183.46 1431.24H1183.25L1168.15 1467H1197.84L1183.46 1431.24Z" fill="#5999D2"/>
<path d="M1274.5 1428.15H1250.45V1492.89H1241.82V1428.15H1217.78V1420.14H1274.5V1428.15Z" fill="#5999D2"/>
<path d="M1300.18 1420.14H1291.55V1492.89H1300.18V1420.14Z" fill="#5999D2"/>
<path d="M1320.93 1456.51C1320.93 1434.52 1336.86 1418.29 1358.95 1418.29C1381.04 1418.29 1396.97 1434.52 1396.97 1456.51C1396.97 1478.5 1381.04 1494.73 1358.95 1494.73C1336.86 1494.74 1320.93 1478.5 1320.93 1456.51ZM1387.72 1456.51C1387.72 1439.76 1376.01 1426.3 1358.95 1426.3C1341.89 1426.3 1330.18 1439.76 1330.18 1456.51C1330.18 1473.26 1341.89 1486.72 1358.95 1486.72C1376.01 1486.72 1387.72 1473.26 1387.72 1456.51Z" fill="#5999D2"/>
<path d="M1417.72 1420.14H1428.61L1470.74 1480.56H1470.95V1420.14H1479.58V1492.89H1468.68L1426.56 1432.47H1426.35V1492.89H1417.72V1420.14Z" fill="#5999D2"/>
<path d="M1574.51 1432.98C1571.63 1428.36 1566.49 1426.3 1561.26 1426.3C1553.66 1426.3 1545.74 1429.9 1545.74 1438.53C1545.74 1445.21 1549.44 1448.19 1561.05 1451.89C1572.35 1455.49 1582.83 1459.18 1582.83 1473.47C1582.83 1487.96 1570.4 1494.74 1557.25 1494.74C1548.83 1494.74 1539.78 1491.97 1534.85 1484.67L1542.25 1478.61C1545.33 1483.95 1551.5 1486.73 1557.77 1486.73C1565.17 1486.73 1573.59 1482.42 1573.59 1474.09C1573.59 1465.15 1567.53 1463.61 1554.58 1459.29C1544.31 1455.9 1536.5 1451.38 1536.5 1439.25C1536.5 1425.28 1548.52 1418.29 1561.26 1418.29C1569.38 1418.29 1576.26 1420.55 1581.6 1426.82L1574.51 1432.98Z" fill="#5999D2"/>
<path d="M1654.97 1435.14C1650.65 1429.28 1643.77 1426.3 1636.78 1426.3C1620.55 1426.3 1609.04 1440.58 1609.04 1456.51C1609.04 1473.36 1620.45 1486.72 1636.78 1486.72C1645.62 1486.72 1652.71 1483.12 1657.84 1476.55L1664.31 1482C1657.84 1490.73 1648.38 1494.74 1636.77 1494.74C1615.91 1494.74 1599.78 1478.61 1599.78 1456.52C1599.78 1435.15 1615.19 1418.3 1636.77 1418.3C1646.63 1418.3 1656.29 1421.69 1662.46 1429.7L1654.97 1435.14Z" fill="#5999D2"/>
<path d="M1691.85 1420.14H1683.22V1492.89H1691.85V1420.14Z" fill="#5999D2"/>
<path d="M1716.82 1420.14H1762.54V1428.15H1725.45V1450.97H1760.07V1458.98H1725.45V1484.87H1764.39V1492.89H1716.82V1420.14Z" fill="#5999D2"/>
<path d="M1784.63 1420.14H1795.52L1837.65 1480.56H1837.85V1420.14H1846.48V1492.89H1835.59L1793.46 1432.47H1793.26V1492.89H1784.63V1420.14Z" fill="#5999D2"/>
<path d="M1922.41 1435.14C1918.09 1429.28 1911.21 1426.3 1904.22 1426.3C1887.99 1426.3 1876.48 1440.58 1876.48 1456.51C1876.48 1473.36 1887.89 1486.72 1904.22 1486.72C1913.06 1486.72 1920.15 1483.12 1925.28 1476.55L1931.75 1482C1925.28 1490.73 1915.82 1494.74 1904.21 1494.74C1883.35 1494.74 1867.22 1478.61 1867.22 1456.52C1867.22 1435.15 1882.63 1418.3 1904.21 1418.3C1914.07 1418.3 1923.73 1421.69 1929.9 1429.7L1922.41 1435.14Z" fill="#5999D2"/>
<path d="M1950.67 1420.14H1996.39V1428.15H1959.3V1450.97H1993.92V1458.98H1959.3V1484.87H1998.24V1492.89H1950.67V1420.14Z" fill="#5999D2"/>
<path d="M2053 1432.98C2050.12 1428.36 2044.98 1426.3 2039.74 1426.3C2032.14 1426.3 2024.23 1429.9 2024.23 1438.53C2024.23 1445.21 2027.93 1448.19 2039.54 1451.89C2050.84 1455.49 2061.32 1459.18 2061.32 1473.47C2061.32 1487.96 2048.89 1494.74 2035.74 1494.74C2027.32 1494.74 2018.27 1491.97 2013.34 1484.67L2020.74 1478.61C2023.82 1483.95 2029.99 1486.73 2036.26 1486.73C2043.66 1486.73 2052.08 1482.42 2052.08 1474.09C2052.08 1465.15 2046.02 1463.61 2033.07 1459.29C2022.8 1455.9 2014.99 1451.38 2014.99 1439.25C2014.99 1425.28 2027.01 1418.29 2039.75 1418.29C2047.87 1418.29 2054.75 1420.55 2060.09 1426.82L2053 1432.98Z" fill="#5999D2"/>
<path d="M513.954 883.78V947.99C513.954 976.05 512.404 993.87 509.334 1001.48C506.304 1009.05 499.844 1012.84 489.964 1012.84C479.644 1012.84 472.984 1009.09 470.074 1001.48C467.124 993.91 465.654 977.73 465.654 952.89V715.63C465.654 689.76 467.124 672.94 470.074 665.17C472.984 657.36 479.964 653.49 490.924 653.49C500.574 653.49 506.824 656.68 509.694 663.06C512.484 669.48 513.964 685.62 513.964 711.41V800.21H563.864C570.714 739.07 594.794 683.15 631.064 637.35C622.094 618.66 606.634 602.79 584.634 589.68C559.164 574.57 526.884 567 487.744 567C458.964 567 433.454 571.9 411.254 581.67C389.054 591.47 371.674 604.87 359.164 621.93C346.644 638.95 339.114 656.69 336.604 675.06C334.094 693.51 332.814 721.09 332.814 757.92V907.15C332.814 957.25 336.914 994.72 345.134 1019.67C353.344 1044.58 370.084 1064.11 395.314 1078.18C420.544 1092.29 452.634 1099.34 491.534 1099.34C528.964 1099.34 560.484 1091.01 586.034 1074.35C605.204 1061.87 619.314 1047.84 628.244 1032.26C595.644 989.89 573.364 939.11 565.274 883.79H513.954V883.78Z" fill="white"/>
<path d="M1443.11 650.54C1440.04 633.24 1432.31 617.54 1419.95 603.43C1407.59 589.28 1389.58 579.16 1365.86 572.98C1356.29 570.51 1343.22 568.52 1326.6 567H1125.16V625.47C1174.42 681.91 1204.28 755.8 1204.28 836.63C1204.28 917.46 1174.43 991.32 1125.16 1047.75V1099.32H1300.85C1334.13 1099.32 1359.08 1097.53 1375.62 1093.86C1392.16 1090.23 1406.03 1083.86 1417.31 1074.69C1428.55 1065.52 1436.44 1052.85 1440.95 1036.63C1445.49 1020.45 1447.73 988.28 1447.73 940.21V752.6C1447.73 701.87 1446.22 667.88 1443.11 650.54ZM1308.47 929.94C1308.47 965.69 1306.16 987.57 1301.49 995.63C1296.87 1003.68 1284.51 1007.71 1264.46 1007.71V655.37C1279.68 655.37 1290.05 656.96 1295.55 660.15C1301.05 663.34 1304.6 668.36 1306.15 675.21C1307.66 682.03 1308.46 697.61 1308.46 721.84V929.94H1308.47Z" fill="white"/>
<path d="M1650.65 993.79V876.01H1737.66V774.1H1650.65V672.54H1743.64V567H1511.39V1099.33H1752.88V993.79H1650.65Z" fill="white"/>
<path d="M1098.74 839.06C1088.38 829.65 1081.36 830.45 1066.62 842.85C1058.69 838.5 1050.56 834.08 1042.47 829.66C1040.16 828.34 1029.16 791.32 1030.59 789.12C1039.36 776.13 1048.61 763.45 1056.74 750.14C1059.17 746.11 1059.97 739.78 1058.77 735.23C1054.94 720.16 1035.57 707.09 1020.15 703.9C992.694 698.2 963.314 696.13 943.984 671.93C943.984 651.24 964.234 662.92 973.874 653.91C966.184 643.27 955.304 640.8 944.144 640.24C939.084 640 933.864 642.51 928.724 643.79C932.314 647.3 935.894 650.77 939.444 654.31C939.964 654.79 940.324 655.47 941.474 657.1C938.244 661.05 935.134 668.22 931.034 668.9C920.474 670.65 908.954 671.25 898.554 669.1C884.844 666.19 870.854 661.85 858.654 655.15C843.504 646.78 829.194 647.93 814.654 653.51C805.084 657.22 793.644 661.12 797.994 676.03C798.394 677.35 796.794 679.26 796.004 680.81C790.944 690.57 772.364 709.59 765.234 717.44C753.754 730.12 741.404 726.01 728.484 723.22C729.364 707.56 723.664 703.57 709.674 710.15C704.654 712.54 699.954 716.13 695.924 719.99C687.074 728.52 683.684 739.48 688.754 743.15C697.444 749.53 706.134 744.58 711.874 738.84C723.514 727.24 735.074 733.66 747.704 735.37C746.704 740.83 743.914 746.13 745.394 749.64C752.214 765.74 740.694 773.95 732.284 783.84C728.414 788.42 725.544 793.84 721.724 798.51C717.784 803.29 713.714 808.23 708.934 812.1C697.454 821.31 690.834 833.11 690.044 847.65C688.884 867.3 703.514 882.72 721.494 878.14C734.764 874.79 746.284 877.14 758.564 879.73C762.714 880.61 767.054 881.2 771.274 880.89C784.064 879.93 795.384 880.85 798.294 896.75C798.694 898.66 800.244 900.9 801.884 901.93C819.224 912.37 814.164 925.65 807.024 939.36C805.704 941.87 804.674 944.58 803.914 947.33C802.284 953.27 798.854 955.3 792.394 955.62C777.124 956.42 766.564 966.3 764.214 980.13C761.624 995.63 769.034 1010.54 782.824 1017.52C794.224 1023.26 810.644 1020.39 819.134 1011.22C828.854 1000.82 832.004 982.68 822.084 972.08C811.604 960.88 814.674 951.95 819.894 941.15C822.204 936.33 823.164 930.83 826.074 926.44C827.784 923.77 831.854 921.82 835.244 921.1C845.204 919.03 855.814 919.03 865.214 915.72C871.554 913.49 874.224 914.88 878.884 918.47C891.994 928.63 905.864 937.88 919.294 947.69C922.084 949.68 924.954 951.99 926.704 954.82C939.104 974.59 957.194 982.16 976.204 975.19C996.054 967.98 1006.29 948.92 1002.63 926.21C1002.03 922.5 1001.83 918.56 1002.27 914.85C1004.18 897.63 1006.37 880.45 1008.65 863.31C1009.01 860.4 1009.45 856.58 1011.32 855.02C1018.89 848.96 1026.98 843.62 1035.67 837.44C1042.65 841.11 1051.18 844.85 1058.75 850C1062.54 852.59 1065.72 857.37 1067.12 861.84C1070.63 872.64 1074.73 882.61 1085.89 887.59C1094.22 891.34 1101.28 889.26 1106.38 881.85C1114.33 870.31 1110.62 849.79 1098.74 839.06ZM800.974 687.69C802.764 681.51 806.314 680.16 812.934 680.79C831.744 682.58 848.964 678.96 861.604 660.54C870.814 664.13 880.454 667.91 888.384 671.02C884.994 679.63 882.324 686.96 879.094 694.02C878.094 696.17 875.704 698.44 873.514 699.2C859.484 704.14 845.374 708.72 831.184 713.23C829.394 713.83 826.994 713.95 825.284 713.35C816.154 710.04 807.114 706.38 796.664 702.31C797.864 698.25 799.414 692.99 800.974 687.69ZM807.824 832.41C802.804 842.37 797.264 852.1 791.884 861.86C790.494 864.29 788.614 868.56 787.064 868.56C774.194 868.28 761.354 867.24 750.634 866.53C752.704 851.94 756.534 839.55 755.654 827.47C754.734 813.68 744.054 806.35 727.074 804.03C736.044 793.15 743.134 783.98 750.994 775.49C752.544 773.78 756.934 774.02 759.924 774.29C768.574 775.25 777.304 776.32 785.794 778.08C789.064 778.8 793.484 780.83 794.684 783.46C800.464 795.98 805.604 808.81 810.114 821.84C811.134 824.8 809.384 829.22 807.824 832.41ZM823.654 821.61C817.754 807.22 811.614 792.95 806.354 778.4C805.554 776.09 807.864 771.07 810.224 769.43C826.844 757.83 837.644 743.76 832.184 720.4C847.614 715.42 862.594 710.28 877.824 705.93C880.374 705.21 884.604 707.01 886.874 709.04C901.984 722.55 919.554 726.54 939.284 724.27C942.594 723.87 947.734 725.79 949.484 728.37C957.414 740.05 964.474 752.32 970.094 761.57C960.924 772.57 950.324 780.66 946.454 791.22C942.664 801.54 945.654 814.42 945.654 828.96C930.474 834.9 912.134 841.99 893.364 849.25C876.984 820.85 854.224 813.08 823.654 821.61ZM994.364 906.1C965.304 884.46 930.954 890.83 920.514 934.68C907.364 924.44 895.004 914.87 885.594 907.5C889.544 891.76 892.574 878.92 896.034 866.25C896.794 863.7 899.064 860.63 901.454 859.63C918.114 852.73 935.014 846.24 951.954 839.9C954.104 839.1 957.334 839.46 959.444 840.5C970.164 845.48 980.804 850.78 991.334 856.32C993.484 857.44 996.514 859.83 996.474 861.58C996.194 875.57 995.234 889.56 994.364 906.1ZM986.584 765.65C984.474 764.85 982.084 763.34 980.924 761.43C972.434 747.52 964.264 733.49 956.334 720.06C960.404 713.36 964.304 706.83 969.484 698.26C979.054 700.29 990.604 702.76 1002.32 705.28C995.704 736.73 1017.7 746.17 1040.46 756.78C1034.2 765.55 1028.34 773.68 1024.2 779.46C1010.1 774.3 998.304 770.15 986.584 765.65Z" fill="#5999D2"/>
<path d="M933.544 1015.94C933.964 1029.94 921.724 1042.04 907.024 1042.13C892.414 1042.22 881.204 1032.01 880.974 1018.44C880.734 1003.12 892.034 991.25 907.214 990.83C921.434 990.46 933.074 1001.57 933.544 1015.94Z" fill="#5999D2"/>
<path d="M1069.8 949.89C1070.08 963.84 1060.34 975.66 1048.43 975.8C1036.71 975.89 1028.24 965.87 1028.24 951.88C1028.24 937.51 1037.79 926.25 1049.8 926.49C1060.82 926.68 1069.56 936.89 1069.8 949.89Z" fill="#5999D2"/>
<path d="M725.174 929.18C725.224 943.65 716.664 954.19 704.894 954.1C693.694 954.05 685.364 944.31 685.084 930.98C684.804 917.17 693.734 905.59 704.994 905.21C716.004 904.79 725.084 915.57 725.174 929.18Z" fill="#5999D2"/>
<path d="M689.674 799.82C684.144 807.1 679.464 814.9 673.074 820.81C670.384 823.32 662.624 823.74 659.744 821.61C656.714 819.44 654.494 812.11 655.964 808.66C659.134 801.09 664.044 793.91 669.774 788C672.134 785.49 679.084 784.83 682.354 786.44C685.464 788.05 686.544 793.72 689.674 799.82Z" fill="#5999D2"/>
<path d="M1107.29 785.83C1107.43 794.44 1102.99 797.65 1095.04 794.67C1086.06 791.36 1076.98 778.08 1077.26 768.71C1077.5 761.19 1081.37 758.45 1088.46 760.62C1097.36 763.37 1107.1 776.61 1107.29 785.83Z" fill="#5999D2"/>
<path d="M1037.84 694.53C1028.43 697.13 1011.5 684.27 1010.27 674.11C1020.48 671.65 1036.8 678.74 1040.48 687.82C1041.2 689.52 1039.3 694.15 1037.84 694.53Z" fill="#5999D2"/>
<path d="M779.454 661.86C774.494 674.25 760.354 680.68 746.924 676.75C749.904 664.55 766.834 656.85 779.454 661.86Z" fill="#5999D2"/>
<path d="M889.004 634.44C882.194 643.42 866.264 644.61 853.164 636.19C865.974 629.85 877.134 629.61 889.004 634.44Z" fill="#5999D2"/>
<path d="M887.124 795.21C869.184 795.07 855.154 782.82 855.434 767.54C855.694 753.03 869.304 741.43 886.184 741.33C903.724 741.22 918.794 753.81 918.734 768.51C918.674 783.21 904.304 795.35 887.124 795.21Z" fill="#5999D2"/>
</g>
<defs>
<clipPath id="clip0_210_146">
<rect width="2061.32" height="2061.32" rx="200" fill="white"/>
</clipPath>
</defs>
</svg>
