<svg width="809" height="566" viewBox="0 0 809 566" fill="none" xmlns="http://www.w3.org/2000/svg">
<g clip-path="url(#clip0_201_10530)">
<path d="M632.756 115.264H200.462C192.849 115.264 186.677 121.436 186.677 129.05V446.48C186.677 454.093 192.849 460.265 200.462 460.265H632.756C640.37 460.265 646.542 454.093 646.542 446.48V129.05C646.542 121.436 640.37 115.264 632.756 115.264Z" fill="#E4EBF7"/>
<path d="M198.995 99.3535H633.993C640.796 99.3535 646.311 104.868 646.311 111.671V148.378H186.677V111.671C186.677 104.868 192.192 99.3535 198.995 99.3535Z" fill="#253368"/>
<path d="M213.006 132.658C217.862 132.658 221.798 128.721 221.798 123.866C221.798 119.01 217.862 115.074 213.006 115.074C208.151 115.074 204.214 119.01 204.214 123.866C204.214 128.721 208.151 132.658 213.006 132.658Z" fill="#FF7946"/>
<path d="M245.843 132.658C250.699 132.658 254.635 128.721 254.635 123.866C254.635 119.01 250.699 115.074 245.843 115.074C240.988 115.074 237.052 119.01 237.052 123.866C237.052 128.721 240.988 132.658 245.843 132.658Z" fill="#FAAD14"/>
<path d="M278.686 132.658C283.541 132.658 287.477 128.721 287.477 123.866C287.477 119.01 283.541 115.074 278.686 115.074C273.83 115.074 269.894 119.01 269.894 123.866C269.894 128.721 273.83 132.658 278.686 132.658Z" fill="#7CB305"/>
<path d="M621.362 180.938H302.541C298.006 180.938 294.329 184.615 294.329 189.15V419.088C294.329 423.623 298.006 427.3 302.541 427.3H621.362C625.897 427.3 629.574 423.623 629.574 419.088V189.15C629.574 184.615 625.897 180.938 621.362 180.938Z" fill="white"/>
<path d="M339.361 297.465L333.705 293.21L339.361 288.966L345.017 293.21L339.361 297.465Z" fill="white"/>
<path d="M270.864 275.426H212.508C210.453 275.426 208.787 277.092 208.787 279.147V288.319C208.787 290.374 210.453 292.04 212.508 292.04H270.864C272.919 292.04 274.585 290.374 274.585 288.319V279.147C274.585 277.092 272.919 275.426 270.864 275.426Z" fill="#ADC6FF"/>
<path d="M270.92 307.412H212.452C210.428 307.412 208.787 309.052 208.787 311.076V319.858C208.787 321.882 210.428 323.522 212.452 323.522H270.92C272.944 323.522 274.585 321.882 274.585 319.858V311.076C274.585 309.052 272.944 307.412 270.92 307.412Z" fill="#597EF7"/>
<path d="M270.92 338.745H212.452C210.428 338.745 208.787 340.386 208.787 342.409V351.191C208.787 353.215 210.428 354.856 212.452 354.856H270.92C272.944 354.856 274.585 353.215 274.585 351.191V342.409C274.585 340.386 272.944 338.745 270.92 338.745Z" fill="#597EF7"/>
<path d="M241.686 248.296C259.827 248.296 274.534 233.59 274.534 215.449C274.534 197.308 259.827 182.601 241.686 182.601C223.545 182.601 208.839 197.308 208.839 215.449C208.839 233.59 223.545 248.296 241.686 248.296Z" fill="white"/>
<path d="M241.686 248.296C251.153 248.302 260.138 244.119 266.229 236.872C261.43 227.76 251.979 222.057 241.681 222.057C231.383 222.057 221.932 227.76 217.133 236.872C223.227 244.121 232.215 248.303 241.686 248.296Z" fill="#253368"/>
<path d="M241.861 223.363C248.683 223.363 254.214 217.832 254.214 211.009C254.214 204.186 248.683 198.656 241.861 198.656C235.038 198.656 229.507 204.186 229.507 211.009C229.507 217.832 235.038 223.363 241.861 223.363Z" fill="#253368"/>
<path d="M484.845 403.477C483.81 403.477 482.962 403.822 482.33 404.511C481.698 405.187 481.367 406.107 481.367 407.256H482.546C482.56 406.351 482.775 405.661 483.178 405.201C483.551 404.713 484.098 404.483 484.802 404.483C485.463 404.483 485.994 404.655 486.368 405C486.742 405.345 486.929 405.819 486.929 406.452C486.929 407.113 486.656 407.731 486.138 408.291C485.865 408.578 485.333 408.995 484.529 409.57C483.436 410.317 482.704 410.935 482.301 411.395C481.611 412.157 481.281 413.005 481.281 413.939H488.121V412.89H482.732C482.919 412.2 483.666 411.409 484.974 410.533C486.038 409.814 486.742 409.254 487.101 408.88C487.762 408.162 488.107 407.357 488.107 406.466C488.107 405.575 487.791 404.842 487.187 404.296C486.569 403.75 485.793 403.477 484.845 403.477ZM493.318 403.477C492.082 403.477 491.162 404.009 490.544 405.101C489.998 406.02 489.725 407.256 489.725 408.808C489.725 410.36 489.998 411.596 490.544 412.516C491.162 413.594 492.082 414.14 493.318 414.14C494.539 414.14 495.459 413.594 496.092 412.516C496.638 411.596 496.911 410.36 496.911 408.808C496.911 407.256 496.638 406.02 496.092 405.101C495.459 404.009 494.539 403.477 493.318 403.477ZM493.318 404.483C494.238 404.483 494.899 404.971 495.301 405.963C495.589 406.653 495.747 407.601 495.747 408.808C495.747 410.001 495.589 410.95 495.301 411.654C494.899 412.631 494.238 413.134 493.318 413.134C492.398 413.134 491.737 412.631 491.335 411.654C491.047 410.95 490.904 410.001 490.904 408.808C490.904 407.601 491.047 406.653 491.335 405.963C491.737 404.971 492.398 404.483 493.318 404.483ZM500.929 403.678C500.584 404.066 500.182 404.411 499.693 404.727C499.204 405.014 498.716 405.216 498.256 405.345V406.523C499.219 406.236 500.024 405.776 500.67 405.115V413.939H501.849V403.678H500.929ZM503.88 403.678V404.756H509.413L505.59 413.939H506.841L510.62 404.641V403.678H503.88Z" fill="#253368"/>
<path d="M379.302 403.477C378.267 403.477 377.419 403.822 376.787 404.511C376.154 405.187 375.824 406.107 375.824 407.256H377.002C377.017 406.351 377.232 405.661 377.635 405.201C378.008 404.713 378.554 404.483 379.259 404.483C379.92 404.483 380.451 404.655 380.825 405C381.199 405.345 381.385 405.819 381.385 406.452C381.385 407.113 381.112 407.731 380.595 408.291C380.322 408.578 379.79 408.995 378.985 409.57C377.893 410.317 377.16 410.935 376.758 411.395C376.068 412.157 375.738 413.005 375.738 413.939H382.578V412.89H377.189C377.376 412.2 378.123 411.409 379.431 410.533C380.494 409.814 381.199 409.254 381.558 408.88C382.219 408.162 382.564 407.357 382.564 406.466C382.564 405.575 382.248 404.842 381.644 404.296C381.026 403.75 380.25 403.477 379.302 403.477ZM387.775 403.477C386.539 403.477 385.619 404.009 385.001 405.101C384.455 406.02 384.182 407.256 384.182 408.808C384.182 410.36 384.455 411.596 385.001 412.516C385.619 413.594 386.539 414.14 387.775 414.14C388.996 414.14 389.916 413.594 390.548 412.516C391.094 411.596 391.367 410.36 391.367 408.808C391.367 407.256 391.094 406.02 390.548 405.101C389.916 404.009 388.996 403.477 387.775 403.477ZM387.775 404.483C388.694 404.483 389.356 404.971 389.758 405.963C390.045 406.653 390.203 407.601 390.203 408.808C390.203 410.001 390.045 410.95 389.758 411.654C389.356 412.631 388.694 413.134 387.775 413.134C386.855 413.134 386.194 412.631 385.792 411.654C385.504 410.95 385.36 410.001 385.36 408.808C385.36 407.601 385.504 406.653 385.792 405.963C386.194 404.971 386.855 404.483 387.775 404.483ZM395.386 403.678C395.041 404.066 394.638 404.411 394.15 404.727C393.661 405.014 393.173 405.216 392.713 405.345V406.523C393.676 406.236 394.48 405.776 395.127 405.115V413.939H396.305V403.678H395.386ZM399.357 403.678L398.811 409.34H399.932C400.133 408.938 400.449 408.622 400.852 408.42C401.24 408.205 401.671 408.104 402.16 408.104C402.907 408.104 403.496 408.32 403.913 408.78C404.344 409.225 404.574 409.857 404.574 410.677C404.574 411.395 404.33 411.984 403.87 412.444C403.395 412.904 402.806 413.134 402.088 413.134C401.455 413.134 400.924 412.976 400.521 412.674C400.061 412.329 399.803 411.826 399.745 411.18H398.581C398.653 412.114 399.041 412.861 399.76 413.407C400.392 413.896 401.168 414.14 402.073 414.14C403.079 414.14 403.942 413.824 404.631 413.206C405.364 412.545 405.738 411.697 405.738 410.662C405.738 409.556 405.422 408.693 404.818 408.061C404.215 407.443 403.424 407.141 402.447 407.141C401.973 407.141 401.542 407.213 401.139 407.386C400.694 407.558 400.32 407.817 400.033 408.162H399.975L400.32 404.727H405.321V403.678H399.357Z" fill="#253368"/>
<path d="M431.904 403.477C430.869 403.477 430.021 403.822 429.389 404.511C428.757 405.187 428.426 406.107 428.426 407.256H429.605C429.619 406.351 429.835 405.661 430.237 405.201C430.611 404.713 431.157 404.483 431.861 404.483C432.522 404.483 433.054 404.655 433.427 405C433.801 405.345 433.988 405.819 433.988 406.452C433.988 407.113 433.715 407.731 433.197 408.291C432.924 408.578 432.393 408.995 431.588 409.57C430.496 410.317 429.763 410.935 429.36 411.395C428.67 412.157 428.34 413.005 428.34 413.939H435.18V412.89H429.791C429.978 412.2 430.726 411.409 432.033 410.533C433.097 409.814 433.801 409.254 434.16 408.88C434.821 408.162 435.166 407.357 435.166 406.466C435.166 405.575 434.85 404.842 434.246 404.296C433.628 403.75 432.852 403.477 431.904 403.477ZM440.377 403.477C439.141 403.477 438.221 404.009 437.604 405.101C437.057 406.02 436.784 407.256 436.784 408.808C436.784 410.36 437.057 411.596 437.604 412.516C438.221 413.594 439.141 414.14 440.377 414.14C441.599 414.14 442.518 413.594 443.151 412.516C443.697 411.596 443.97 410.36 443.97 408.808C443.97 407.256 443.697 406.02 443.151 405.101C442.518 404.009 441.599 403.477 440.377 403.477ZM440.377 404.483C441.297 404.483 441.958 404.971 442.36 405.963C442.648 406.653 442.806 407.601 442.806 408.808C442.806 410.001 442.648 410.95 442.36 411.654C441.958 412.631 441.297 413.134 440.377 413.134C439.457 413.134 438.796 412.631 438.394 411.654C438.106 410.95 437.963 410.001 437.963 408.808C437.963 407.601 438.106 406.653 438.394 405.963C438.796 404.971 439.457 404.483 440.377 404.483ZM447.988 403.678C447.643 404.066 447.241 404.411 446.752 404.727C446.263 405.014 445.775 405.216 445.315 405.345V406.523C446.278 406.236 447.083 405.776 447.729 405.115V413.939H448.908V403.678H447.988ZM454.906 403.477C453.742 403.477 452.822 404.009 452.146 405.086C451.5 406.107 451.184 407.443 451.184 409.081C451.184 410.648 451.471 411.869 452.075 412.746C452.707 413.666 453.641 414.14 454.891 414.14C455.897 414.14 456.716 413.795 457.377 413.134C458.024 412.473 458.355 411.625 458.355 410.619C458.355 409.613 458.053 408.808 457.464 408.176C456.86 407.544 456.07 407.228 455.092 407.228C454.489 407.228 453.957 407.371 453.497 407.673C453.009 407.96 452.649 408.377 452.391 408.909H452.333C452.319 408.722 452.319 408.593 452.319 408.535C452.319 407.371 452.534 406.408 452.994 405.661C453.454 404.856 454.086 404.468 454.891 404.468C456.084 404.468 456.788 405.043 457.018 406.222H458.182C457.895 404.382 456.803 403.477 454.906 403.477ZM454.862 408.205C455.567 408.205 456.127 408.42 456.558 408.88C456.975 409.311 457.191 409.886 457.191 410.619C457.191 411.352 456.975 411.956 456.544 412.444C456.113 412.904 455.552 413.148 454.862 413.148C454.144 413.148 453.583 412.904 453.152 412.415C452.721 411.956 452.52 411.366 452.52 410.648C452.52 409.929 452.736 409.354 453.181 408.895C453.627 408.435 454.187 408.205 454.862 408.205Z" fill="#253368"/>
<path d="M319.581 202.789C318.503 202.789 317.669 203.062 317.066 203.623C316.505 204.126 316.232 204.758 316.232 205.505C316.232 206.051 316.362 206.511 316.62 206.885C316.893 207.287 317.296 207.589 317.842 207.776V207.804C317.296 207.934 316.85 208.236 316.477 208.695C316.074 209.184 315.873 209.759 315.873 210.42C315.873 211.325 316.189 212.058 316.822 212.604C317.468 213.165 318.388 213.452 319.581 213.452C320.759 213.452 321.679 213.165 322.34 212.604C322.972 212.058 323.288 211.325 323.288 210.42C323.288 209.759 323.087 209.184 322.685 208.695C322.311 208.236 321.851 207.934 321.32 207.804V207.776C321.851 207.589 322.254 207.287 322.541 206.885C322.8 206.511 322.929 206.051 322.929 205.505C322.929 204.758 322.642 204.126 322.096 203.623C321.492 203.062 320.644 202.789 319.581 202.789ZM319.581 203.752C320.299 203.752 320.874 203.939 321.291 204.312C321.636 204.629 321.823 205.045 321.823 205.548C321.823 206.066 321.665 206.497 321.348 206.813C320.96 207.187 320.371 207.388 319.581 207.388C318.776 207.388 318.187 207.187 317.813 206.813C317.497 206.497 317.339 206.066 317.339 205.548C317.339 205.045 317.511 204.629 317.871 204.312C318.273 203.939 318.848 203.752 319.581 203.752ZM319.581 208.307C320.4 208.307 321.047 208.509 321.506 208.925C321.909 209.299 322.124 209.802 322.124 210.42C322.124 211.024 321.909 211.512 321.506 211.886C321.047 212.288 320.414 212.489 319.581 212.489C318.747 212.489 318.101 212.288 317.669 211.9C317.238 211.526 317.037 211.024 317.037 210.42C317.037 209.802 317.238 209.299 317.669 208.925C318.115 208.509 318.747 208.307 319.581 208.307ZM328.198 202.789C326.962 202.789 326.042 203.321 325.424 204.413C324.878 205.333 324.605 206.569 324.605 208.121C324.605 209.673 324.878 210.909 325.424 211.828C326.042 212.906 326.962 213.452 328.198 213.452C329.419 213.452 330.339 212.906 330.971 211.828C331.517 210.909 331.79 209.673 331.79 208.121C331.79 206.569 331.517 205.333 330.971 204.413C330.339 203.321 329.419 202.789 328.198 202.789ZM328.198 203.795C329.117 203.795 329.778 204.284 330.181 205.275C330.468 205.965 330.626 206.913 330.626 208.121C330.626 209.313 330.468 210.262 330.181 210.966C329.778 211.943 329.117 212.446 328.198 212.446C327.278 212.446 326.617 211.943 326.214 210.966C325.927 210.262 325.783 209.313 325.783 208.121C325.783 206.913 325.927 205.965 326.214 205.275C326.617 204.284 327.278 203.795 328.198 203.795Z" fill="#253368"/>
<path d="M319.724 243.977C318.56 243.977 317.641 244.508 316.965 245.586C316.319 246.606 316.002 247.943 316.002 249.581C316.002 251.148 316.29 252.369 316.893 253.246C317.526 254.165 318.46 254.64 319.71 254.64C320.716 254.64 321.535 254.295 322.196 253.634C322.843 252.973 323.173 252.125 323.173 251.119C323.173 250.113 322.872 249.308 322.282 248.676C321.679 248.043 320.889 247.727 319.911 247.727C319.308 247.727 318.776 247.871 318.316 248.173C317.828 248.46 317.468 248.877 317.21 249.409H317.152C317.138 249.222 317.138 249.093 317.138 249.035C317.138 247.871 317.353 246.908 317.813 246.161C318.273 245.356 318.905 244.968 319.71 244.968C320.903 244.968 321.607 245.543 321.837 246.721H323.001C322.714 244.882 321.621 243.977 319.724 243.977ZM319.681 248.705C320.386 248.705 320.946 248.92 321.377 249.38C321.794 249.811 322.009 250.386 322.009 251.119C322.009 251.852 321.794 252.455 321.363 252.944C320.932 253.404 320.371 253.648 319.681 253.648C318.963 253.648 318.402 253.404 317.971 252.915C317.54 252.455 317.339 251.866 317.339 251.148C317.339 250.429 317.554 249.854 318 249.394C318.445 248.934 319.006 248.705 319.681 248.705ZM328.198 243.977C326.962 243.977 326.042 244.508 325.424 245.6C324.878 246.52 324.605 247.756 324.605 249.308C324.605 250.86 324.878 252.096 325.424 253.016C326.042 254.094 326.962 254.64 328.198 254.64C329.419 254.64 330.339 254.094 330.971 253.016C331.517 252.096 331.79 250.86 331.79 249.308C331.79 247.756 331.517 246.52 330.971 245.6C330.339 244.508 329.419 243.977 328.198 243.977ZM328.198 244.983C329.117 244.983 329.778 245.471 330.181 246.463C330.468 247.152 330.626 248.101 330.626 249.308C330.626 250.501 330.468 251.449 330.181 252.154C329.778 253.131 329.117 253.634 328.198 253.634C327.278 253.634 326.617 253.131 326.214 252.154C325.927 251.449 325.783 250.501 325.783 249.308C325.783 248.101 325.927 247.152 326.214 246.463C326.617 245.471 327.278 244.983 328.198 244.983Z" fill="#253368"/>
<path d="M319.724 326.357C318.69 326.357 317.842 326.702 317.21 327.392C316.577 328.067 316.247 328.987 316.247 330.137H317.425C317.44 329.231 317.655 328.542 318.057 328.082C318.431 327.593 318.977 327.363 319.681 327.363C320.342 327.363 320.874 327.536 321.248 327.88C321.621 328.225 321.808 328.7 321.808 329.332C321.808 329.993 321.535 330.611 321.018 331.171C320.745 331.459 320.213 331.876 319.408 332.45C318.316 333.198 317.583 333.816 317.181 334.275C316.491 335.037 316.161 335.885 316.161 336.819H323.001V335.77H317.612C317.799 335.08 318.546 334.29 319.854 333.413C320.917 332.695 321.621 332.134 321.981 331.761C322.642 331.042 322.987 330.237 322.987 329.346C322.987 328.455 322.67 327.722 322.067 327.176C321.449 326.63 320.673 326.357 319.724 326.357ZM328.198 326.357C326.962 326.357 326.042 326.889 325.424 327.981C324.878 328.901 324.605 330.137 324.605 331.689C324.605 333.241 324.878 334.477 325.424 335.396C326.042 336.474 326.962 337.02 328.198 337.02C329.419 337.02 330.339 336.474 330.971 335.396C331.517 334.477 331.79 333.241 331.79 331.689C331.79 330.137 331.517 328.901 330.971 327.981C330.339 326.889 329.419 326.357 328.198 326.357ZM328.198 327.363C329.117 327.363 329.778 327.852 330.181 328.843C330.468 329.533 330.626 330.482 330.626 331.689C330.626 332.881 330.468 333.83 330.181 334.534C329.778 335.511 329.117 336.014 328.198 336.014C327.278 336.014 326.617 335.511 326.214 334.534C325.927 333.83 325.783 332.881 325.783 331.689C325.783 330.482 325.927 329.533 326.214 328.843C326.617 327.852 327.278 327.363 328.198 327.363Z" fill="#253368"/>
<path d="M319.581 367.55C318.345 367.55 317.425 368.082 316.807 369.174C316.261 370.093 315.988 371.329 315.988 372.881C315.988 374.433 316.261 375.669 316.807 376.589C317.425 377.667 318.345 378.213 319.581 378.213C320.802 378.213 321.722 377.667 322.354 376.589C322.9 375.669 323.173 374.433 323.173 372.881C323.173 371.329 322.9 370.093 322.354 369.174C321.722 368.082 320.802 367.55 319.581 367.55ZM319.581 368.556C320.5 368.556 321.162 369.044 321.564 370.036C321.851 370.726 322.009 371.674 322.009 372.881C322.009 374.074 321.851 375.023 321.564 375.727C321.162 376.704 320.5 377.207 319.581 377.207C318.661 377.207 318 376.704 317.598 375.727C317.31 375.023 317.166 374.074 317.166 372.881C317.166 371.674 317.31 370.726 317.598 370.036C318 369.044 318.661 368.556 319.581 368.556Z" fill="#253368"/>
<path d="M320.788 285.371L315.614 292.182V293.303H320.774V295.631H321.894V293.303H323.561V292.34H321.894V285.371H320.788ZM320.73 286.908H320.774V292.34H316.606L320.73 286.908ZM328.198 285.169C326.962 285.169 326.042 285.701 325.424 286.793C324.878 287.713 324.605 288.949 324.605 290.501C324.605 292.053 324.878 293.289 325.424 294.209C326.042 295.286 326.962 295.833 328.198 295.833C329.419 295.833 330.339 295.286 330.971 294.209C331.517 293.289 331.79 292.053 331.79 290.501C331.79 288.949 331.517 287.713 330.971 286.793C330.339 285.701 329.419 285.169 328.198 285.169ZM328.198 286.175C329.117 286.175 329.778 286.664 330.181 287.656C330.468 288.345 330.626 289.294 330.626 290.501C330.626 291.694 330.468 292.642 330.181 293.346C329.778 294.324 329.117 294.827 328.198 294.827C327.278 294.827 326.617 294.324 326.214 293.346C325.927 292.642 325.783 291.694 325.783 290.501C325.783 289.294 325.927 288.345 326.214 287.656C326.617 286.664 327.278 286.175 328.198 286.175Z" fill="#253368"/>
<path d="M537.108 403.477C536.074 403.477 535.226 403.822 534.593 404.511C533.961 405.187 533.631 406.107 533.631 407.256H534.809C534.823 406.351 535.039 405.661 535.441 405.201C535.815 404.713 536.361 404.483 537.065 404.483C537.726 404.483 538.258 404.655 538.632 405C539.005 405.345 539.192 405.819 539.192 406.452C539.192 407.113 538.919 407.731 538.402 408.291C538.129 408.578 537.597 408.995 536.792 409.57C535.7 410.317 534.967 410.935 534.565 411.395C533.875 412.157 533.544 413.005 533.544 413.939H540.385V412.89H534.996C535.183 412.2 535.93 411.409 537.238 410.533C538.301 409.814 539.005 409.254 539.364 408.88C540.026 408.162 540.37 407.357 540.37 406.466C540.37 405.575 540.054 404.842 539.451 404.296C538.833 403.75 538.057 403.477 537.108 403.477ZM545.581 403.477C544.346 403.477 543.426 404.009 542.808 405.101C542.262 406.02 541.989 407.256 541.989 408.808C541.989 410.36 542.262 411.596 542.808 412.516C543.426 413.594 544.346 414.14 545.581 414.14C546.803 414.14 547.723 413.594 548.355 412.516C548.901 411.596 549.174 410.36 549.174 408.808C549.174 407.256 548.901 406.02 548.355 405.101C547.723 404.009 546.803 403.477 545.581 403.477ZM545.581 404.483C546.501 404.483 547.162 404.971 547.565 405.963C547.852 406.653 548.01 407.601 548.01 408.808C548.01 410.001 547.852 410.95 547.565 411.654C547.162 412.631 546.501 413.134 545.581 413.134C544.662 413.134 544.001 412.631 543.598 411.654C543.311 410.95 543.167 410.001 543.167 408.808C543.167 407.601 543.311 406.653 543.598 405.963C544.001 404.971 544.662 404.483 545.581 404.483ZM553.192 403.678C552.847 404.066 552.445 404.411 551.956 404.727C551.468 405.014 550.979 405.216 550.519 405.345V406.523C551.482 406.236 552.287 405.776 552.934 405.115V413.939H554.112V403.678H553.192ZM559.966 403.477C558.888 403.477 558.055 403.75 557.451 404.31C556.891 404.813 556.618 405.446 556.618 406.193C556.618 406.739 556.747 407.199 557.006 407.572C557.279 407.975 557.681 408.277 558.227 408.463V408.492C557.681 408.622 557.236 408.923 556.862 409.383C556.46 409.872 556.259 410.447 556.259 411.108C556.259 412.013 556.575 412.746 557.207 413.292C557.854 413.852 558.773 414.14 559.966 414.14C561.145 414.14 562.064 413.852 562.725 413.292C563.358 412.746 563.674 412.013 563.674 411.108C563.674 410.447 563.473 409.872 563.07 409.383C562.697 408.923 562.237 408.622 561.705 408.492V408.463C562.237 408.277 562.639 407.975 562.927 407.572C563.185 407.199 563.315 406.739 563.315 406.193C563.315 405.446 563.027 404.813 562.481 404.31C561.878 403.75 561.03 403.477 559.966 403.477ZM559.966 404.44C560.685 404.44 561.26 404.626 561.676 405C562.021 405.316 562.208 405.733 562.208 406.236C562.208 406.753 562.05 407.184 561.734 407.501C561.346 407.874 560.757 408.075 559.966 408.075C559.161 408.075 558.572 407.874 558.199 407.501C557.882 407.184 557.724 406.753 557.724 406.236C557.724 405.733 557.897 405.316 558.256 405C558.658 404.626 559.233 404.44 559.966 404.44ZM559.966 408.995C560.785 408.995 561.432 409.196 561.892 409.613C562.294 409.987 562.51 410.49 562.51 411.108C562.51 411.711 562.294 412.2 561.892 412.573C561.432 412.976 560.8 413.177 559.966 413.177C559.133 413.177 558.486 412.976 558.055 412.588C557.624 412.214 557.423 411.711 557.423 411.108C557.423 410.49 557.624 409.987 558.055 409.613C558.5 409.196 559.133 408.995 559.966 408.995Z" fill="#253368"/>
<path d="M589.71 403.477C588.676 403.477 587.828 403.822 587.195 404.511C586.563 405.187 586.233 406.107 586.233 407.256H587.411C587.425 406.351 587.641 405.661 588.043 405.201C588.417 404.713 588.963 404.483 589.667 404.483C590.328 404.483 590.86 404.655 591.234 405C591.607 405.345 591.794 405.819 591.794 406.452C591.794 407.113 591.521 407.731 591.004 408.291C590.731 408.578 590.199 408.995 589.394 409.57C588.302 410.317 587.569 410.935 587.167 411.395C586.477 412.157 586.146 413.005 586.146 413.939H592.987V412.89H587.598C587.785 412.2 588.532 411.409 589.84 410.533C590.903 409.814 591.607 409.254 591.967 408.88C592.628 408.162 592.972 407.357 592.972 406.466C592.972 405.575 592.656 404.842 592.053 404.296C591.435 403.75 590.659 403.477 589.71 403.477ZM598.183 403.477C596.948 403.477 596.028 404.009 595.41 405.101C594.864 406.02 594.591 407.256 594.591 408.808C594.591 410.36 594.864 411.596 595.41 412.516C596.028 413.594 596.948 414.14 598.183 414.14C599.405 414.14 600.325 413.594 600.957 412.516C601.503 411.596 601.776 410.36 601.776 408.808C601.776 407.256 601.503 406.02 600.957 405.101C600.325 404.009 599.405 403.477 598.183 403.477ZM598.183 404.483C599.103 404.483 599.764 404.971 600.167 405.963C600.454 406.653 600.612 407.601 600.612 408.808C600.612 410.001 600.454 410.95 600.167 411.654C599.764 412.631 599.103 413.134 598.183 413.134C597.264 413.134 596.603 412.631 596.2 411.654C595.913 410.95 595.769 410.001 595.769 408.808C595.769 407.601 595.913 406.653 596.2 405.963C596.603 404.971 597.264 404.483 598.183 404.483ZM605.794 403.678C605.449 404.066 605.047 404.411 604.558 404.727C604.07 405.014 603.581 405.216 603.121 405.345V406.523C604.084 406.236 604.889 405.776 605.536 405.115V413.939H606.714V403.678H605.794ZM612.453 403.477C611.447 403.477 610.614 403.807 609.967 404.483C609.306 405.144 608.99 405.977 608.99 406.998C608.99 407.989 609.277 408.794 609.867 409.412C610.47 410.059 611.261 410.389 612.252 410.389C612.856 410.389 613.387 410.231 613.847 409.944C614.322 409.642 614.695 409.225 614.954 408.708H615.011C615.011 408.88 615.026 409.01 615.026 409.081C615.026 410.231 614.796 411.194 614.35 411.956C613.876 412.746 613.244 413.148 612.453 413.148C611.246 413.148 610.542 412.559 610.326 411.395H609.162C609.435 413.22 610.528 414.14 612.439 414.14C613.589 414.14 614.508 413.594 615.198 412.53C615.83 411.496 616.161 410.174 616.161 408.535C616.161 406.955 615.859 405.719 615.256 404.856C614.623 403.937 613.689 403.477 612.453 403.477ZM612.482 404.468C613.186 404.468 613.761 404.713 614.192 405.201C614.609 405.661 614.824 406.25 614.824 406.969C614.824 407.673 614.595 408.262 614.163 408.722C613.704 409.182 613.143 409.412 612.482 409.412C611.764 409.412 611.203 409.182 610.786 408.736C610.355 408.305 610.154 407.716 610.154 406.998C610.154 406.25 610.355 405.647 610.786 405.173C611.217 404.698 611.778 404.468 612.482 404.468Z" fill="#253368"/>
<path d="M350.793 180.465C351.576 180.465 352.216 181.075 352.264 181.846L352.267 181.939V426.638C352.267 427.452 351.607 428.112 350.793 428.112C350.011 428.112 349.37 427.501 349.322 426.731L349.319 426.638V181.939C349.319 181.125 349.979 180.465 350.793 180.465Z" fill="#A3B5D6"/>
<path d="M440.516 267.688C441.42 266.919 442.778 267.079 443.483 268.014L443.549 268.107L501.344 354.116L546.686 322.485C546.966 322.29 547.289 322.168 547.627 322.129L547.754 322.119L605.905 319.106C607.037 319.047 608.002 319.918 608.061 321.05C608.118 322.146 607.304 323.085 606.226 323.198L606.117 323.206L548.552 326.189L501.981 358.68C501.071 359.315 499.829 359.109 499.169 358.234L499.102 358.141L441.423 272.305L373.81 329.778C372.976 330.487 371.739 330.413 370.994 329.63L370.916 329.543C370.207 328.709 370.281 327.472 371.064 326.727L371.151 326.649L440.516 267.688Z" fill="#FF7946"/>
<path d="M597.894 216.081C598.529 215.141 599.805 214.894 600.745 215.528C601.653 216.142 601.914 217.355 601.357 218.284L601.297 218.379L549.562 294.97C548.838 296.041 547.325 296.179 546.419 295.283L546.339 295.199L486.284 228.858L444.148 257.085C443.839 257.292 443.481 257.41 443.111 257.429L442.972 257.432L371.816 256.277C370.682 256.258 369.778 255.325 369.796 254.191C369.814 253.094 370.69 252.212 371.774 252.173L371.883 252.171L442.395 253.316L485.473 224.46C486.288 223.914 487.37 224.023 488.06 224.706L488.137 224.787L547.625 290.501L597.894 216.081Z" fill="#FAAD14"/>
<path d="M508.709 265.274C509.207 264.842 509.879 264.677 510.516 264.824L510.635 264.855L548.864 276.113L605.054 267.224C606.138 267.053 607.157 267.763 607.382 268.824L607.402 268.931C607.574 270.015 606.864 271.035 605.803 271.26L605.695 271.28L549.049 280.241C548.791 280.282 548.528 280.273 548.274 280.215L548.148 280.183L510.553 269.111L446.03 325.139C445.379 325.704 444.45 325.8 443.701 325.392L443.6 325.333L367.302 277.935C366.339 277.337 366.043 276.071 366.641 275.108C367.22 274.177 368.422 273.869 369.371 274.39L369.468 274.447L444.481 321.046L508.709 265.274Z" fill="#597EF7"/>
<path fill-rule="evenodd" clip-rule="evenodd" d="M661.119 280.052L661.723 264.676L675.563 265.104L676.664 279.774C676.997 284.205 673.56 288.016 669.118 288.14C664.613 288.267 660.942 284.554 661.119 280.052Z" fill="#FFC999"/>
<path fill-rule="evenodd" clip-rule="evenodd" d="M658.097 263.149C658.097 263.149 655.915 261.028 655.072 262.529C654.229 264.028 655.953 269.241 658.247 269.306C661.311 269.391 658.097 263.149 658.097 263.149Z" fill="#FFC999"/>
<path fill-rule="evenodd" clip-rule="evenodd" d="M671.847 276.209C671.847 276.209 667.47 280.029 661.404 276.568C657.037 274.077 656.212 264.589 656.82 257.588C657.164 253.626 658.918 251.446 662.73 250.158C666.543 248.87 676.976 248.508 677.404 260.121C677.879 273.056 671.847 276.209 671.847 276.209Z" fill="#FFC999"/>
<path d="M663.555 259.216C663.655 259.188 663.759 259.236 663.803 259.326L663.817 259.362L664.515 261.798C664.52 261.818 664.523 261.839 664.523 261.86L664.52 261.891L663.452 268.301L665.98 268.244C666.085 268.242 666.174 268.317 666.193 268.417L666.196 268.451C666.199 268.557 666.124 268.646 666.024 268.664L665.989 268.668L663.205 268.73C663.085 268.733 662.989 268.635 662.989 268.519L662.992 268.483L664.094 261.869L663.409 259.478C663.381 259.378 663.429 259.274 663.519 259.23L663.555 259.216Z" fill="#DD936F"/>
<path d="M666.781 257.969L666.835 257.971L668.934 258.145L669.422 258.181C670.832 258.28 671.739 258.288 672.181 258.186C672.485 258.116 672.788 258.305 672.859 258.609C672.929 258.913 672.739 259.217 672.435 259.287C671.826 259.427 670.821 259.416 669.202 259.298L668.353 259.231L666.826 259.103C666.8 259.101 666.773 259.099 666.747 259.097C666.436 259.073 666.204 258.801 666.228 258.49C666.251 258.197 666.493 257.974 666.781 257.969Z" fill="#253368"/>
<path d="M667.971 270.02C668.128 269.975 668.292 270.065 668.338 270.222C668.383 270.379 668.293 270.543 668.136 270.589L667.993 270.626C667.961 270.634 667.925 270.643 667.885 270.652C667.686 270.697 667.454 270.743 667.191 270.785C666.035 270.97 664.686 271.038 663.185 270.918C663.023 270.905 662.901 270.762 662.914 270.599C662.927 270.436 663.07 270.315 663.233 270.328C664.683 270.444 665.986 270.379 667.097 270.201C667.297 270.169 667.477 270.135 667.637 270.101L667.85 270.052C667.907 270.038 667.947 270.027 667.971 270.02Z" fill="#FF7946"/>
<path fill-rule="evenodd" clip-rule="evenodd" d="M676.239 265.141L678.36 260.595C678.36 260.595 679.588 254.097 678.005 251.37C675.549 247.138 670.248 247.424 667.063 246.377C663.878 245.329 663.873 244.268 662.602 244.485C661.33 244.703 656.496 248.311 656.057 251.934C655.671 255.121 656.737 263.172 656.737 263.172C656.737 263.172 657.399 255.99 658.027 254.08C660.489 252.957 669.554 252.614 673.375 253.659C673.375 253.659 673.781 256.083 674.026 257.792C676.099 259.177 676.239 265.141 676.239 265.141Z" fill="#253368"/>
<path d="M675.542 270.719C675.6 270.617 675.729 270.582 675.831 270.64C675.932 270.698 675.968 270.827 675.91 270.929C674.925 272.655 673.873 274.052 672.76 275.14C669.392 278.438 665.788 278.747 662.48 277.291C662.082 277.116 661.726 276.928 661.417 276.741C661.335 276.691 661.261 276.644 661.194 276.6L661.044 276.497C661.038 276.492 661.032 276.488 661.027 276.485C660.933 276.415 660.914 276.282 660.984 276.188C661.054 276.094 661.187 276.075 661.281 276.145L661.337 276.186C661.404 276.233 661.505 276.298 661.636 276.378C661.931 276.557 662.271 276.736 662.65 276.903C665.813 278.295 669.232 278.002 672.464 274.838C673.547 273.778 674.576 272.412 675.542 270.719Z" fill="#DD936F"/>
<path d="M663.825 261.465L665.874 261.483C666.108 261.486 666.296 261.677 666.294 261.911C666.292 262.129 666.125 262.308 665.913 262.329L665.867 262.331L663.817 262.313C663.583 262.31 663.395 262.119 663.397 261.885C663.399 261.667 663.566 261.488 663.779 261.467L663.825 261.465Z" fill="#253368"/>
<path d="M664.503 262.575C664.907 262.539 665.321 262.626 665.725 262.79C665.927 262.872 666.084 262.955 666.18 263.015C666.379 263.138 666.439 263.4 666.315 263.598C666.192 263.797 665.93 263.858 665.732 263.734L665.669 263.698C665.605 263.663 665.515 263.619 665.406 263.575C665.116 263.457 664.828 263.396 664.578 263.419C664.386 263.436 664.225 263.501 664.087 263.625L664.037 263.675C663.876 263.844 663.608 263.852 663.438 263.691C663.268 263.53 663.26 263.262 663.421 263.092C663.717 262.779 664.089 262.612 664.503 262.575Z" fill="#253368"/>
<path d="M659.523 257.643C660.435 257.575 661.391 257.748 662.333 258.075C662.811 258.241 663.181 258.409 663.4 258.525C663.676 258.672 663.78 259.014 663.633 259.29C663.487 259.565 663.145 259.669 662.869 259.523L662.78 259.478C662.741 259.459 662.691 259.435 662.632 259.409C662.432 259.318 662.207 259.227 661.962 259.142C661.154 258.861 660.343 258.715 659.607 258.769C659.041 258.812 658.547 258.972 658.131 259.265C657.876 259.445 657.524 259.384 657.344 259.129C657.164 258.874 657.225 258.522 657.48 258.342C658.074 257.924 658.764 257.699 659.523 257.643Z" fill="#253368"/>
<path d="M666.159 272.387C666.276 272.387 666.371 272.481 666.372 272.598C666.372 272.704 666.296 272.791 666.195 272.808L666.161 272.811L664.491 272.817C664.374 272.818 664.278 272.723 664.278 272.606C664.277 272.501 664.354 272.413 664.455 272.397L664.489 272.394L666.159 272.387Z" fill="#DD936F"/>
<path d="M676.82 261.405C677.054 261.403 677.245 261.591 677.247 261.825C677.25 262.043 677.086 262.225 676.874 262.25L676.828 262.253L673.468 262.285C673.234 262.287 673.042 262.099 673.04 261.865C673.038 261.647 673.201 261.465 673.413 261.44L673.46 261.437L676.82 261.405Z" fill="#253368"/>
<path fill-rule="evenodd" clip-rule="evenodd" d="M673.209 261.198L666.793 261.224C666.345 261.225 665.983 261.589 665.988 262.037C665.998 262.872 666.05 264.212 666.272 265.359C666.533 266.711 667.753 267.534 669.129 267.593C670.848 267.665 672.391 267.661 673.167 266.766C674.35 265.402 674.05 263.167 674.019 261.982C674.009 261.547 673.644 261.196 673.209 261.198Z" fill="white"/>
<path d="M673.209 261.057L666.792 261.082C666.266 261.084 665.842 261.512 665.847 262.038C665.861 263.243 665.945 264.411 666.133 265.385C666.398 266.752 667.621 267.669 669.123 267.733L669.437 267.745C671.577 267.816 672.601 267.633 673.273 266.858C673.782 266.272 674.059 265.506 674.165 264.567C674.227 264.021 674.23 263.525 674.195 262.758L674.162 262.024C674.161 262.01 674.161 261.995 674.161 261.978C674.148 261.467 673.721 261.055 673.209 261.057ZM666.794 261.365L673.21 261.339C673.569 261.338 673.87 261.628 673.878 261.985L673.892 262.34L673.905 262.603C673.947 263.454 673.948 263.97 673.884 264.536C673.784 265.422 673.526 266.136 673.06 266.673C672.437 267.392 671.399 267.546 669.135 267.451C667.756 267.393 666.648 266.562 666.41 265.332C666.226 264.377 666.143 263.225 666.129 262.035C666.125 261.666 666.423 261.366 666.794 261.365Z" fill="#253368"/>
<path fill-rule="evenodd" clip-rule="evenodd" d="M663.202 261.167L655.938 261.196C655.673 262.258 655.949 266.362 657.199 267.237C658.872 268.105 662.244 267.713 662.764 266.82C663.555 265.464 663.839 262.884 663.82 261.774C663.815 261.436 663.54 261.166 663.202 261.167Z" fill="white"/>
<path d="M663.201 261.025L655.937 261.054C655.873 261.055 655.817 261.099 655.801 261.161C655.416 262.705 656.001 266.571 657.118 267.352C658.795 268.224 662.294 267.907 662.886 266.89C663.571 265.717 663.987 263.345 663.961 261.771C663.955 261.356 663.617 261.024 663.201 261.025ZM656.051 261.336L663.202 261.308C663.463 261.307 663.675 261.515 663.679 261.776C663.704 263.303 663.296 265.627 662.642 266.748C662.14 267.61 658.807 267.912 657.263 267.111L657.208 267.069C656.298 266.313 655.764 262.921 656.038 261.403L656.051 261.336Z" fill="#253368"/>
<path d="M673.893 260.816C674.127 260.809 674.322 260.993 674.329 261.227C674.336 261.445 674.176 261.63 673.965 261.659L673.919 261.663L665.966 261.903C665.732 261.91 665.537 261.726 665.53 261.492C665.523 261.274 665.683 261.089 665.894 261.06L665.94 261.056L673.893 260.816Z" fill="#253368"/>
<path d="M655.883 260.932L663.678 261.011C663.912 261.013 664.099 261.205 664.097 261.439C664.095 261.657 663.928 261.835 663.715 261.856L663.669 261.858L655.875 261.78C655.641 261.777 655.453 261.586 655.455 261.352C655.457 261.133 655.624 260.955 655.837 260.934L655.883 260.932Z" fill="#253368"/>
<path fill-rule="evenodd" clip-rule="evenodd" d="M677.141 261.493C677.923 260.614 679.185 260.324 680.126 261.259C681.643 262.764 680.555 268.654 676.659 269.069C675.166 268.929 675.92 262.866 677.141 261.493Z" fill="#FFC999"/>
<path d="M678.81 261.955C678.917 261.909 679.042 261.959 679.088 262.066C679.134 262.174 679.084 262.298 678.976 262.344L678.921 262.37C678.887 262.387 678.843 262.41 678.792 262.44C678.649 262.522 678.506 262.622 678.372 262.738C677.899 263.149 677.68 263.647 677.833 264.249C677.874 264.41 677.937 264.485 678.095 264.575L678.195 264.629C678.524 264.801 678.671 264.954 678.717 265.305C678.785 265.838 678.543 266.249 678.115 266.539C677.897 266.686 677.682 266.773 677.531 266.813C677.418 266.843 677.302 266.776 677.272 266.663C677.242 266.549 677.309 266.433 677.423 266.403L677.491 266.382C677.511 266.374 677.534 266.366 677.56 266.355C677.669 266.312 677.777 266.256 677.878 266.188C678.185 265.98 678.342 265.713 678.296 265.36C678.275 265.191 678.227 265.129 678.05 265.032L677.954 264.981C677.659 264.825 677.503 264.67 677.422 264.354C677.225 263.576 677.511 262.925 678.094 262.418C678.25 262.283 678.415 262.168 678.581 262.072C678.682 262.015 678.761 261.976 678.81 261.955Z" fill="#DD936F"/>
<path fill-rule="evenodd" clip-rule="evenodd" d="M661.192 263.115C661.217 263.758 660.84 264.296 660.35 264.315C659.86 264.334 659.441 263.828 659.416 263.184C659.391 262.541 659.768 262.003 660.258 261.984C660.748 261.965 661.167 262.471 661.192 263.115Z" fill="#253368"/>
<path fill-rule="evenodd" clip-rule="evenodd" d="M670.424 263.251C670.45 263.895 670.073 264.432 669.582 264.451C669.092 264.47 668.674 263.964 668.648 263.321C668.624 262.677 669 262.139 669.491 262.12C669.981 262.101 670.399 262.607 670.424 263.251Z" fill="#253368"/>
<path fill-rule="evenodd" clip-rule="evenodd" d="M632.861 335.725C629.179 334.118 627.392 329.916 628.789 326.15L641.443 292.032C643.304 287.014 649 284.592 653.906 286.733C658.752 288.849 660.869 294.571 658.564 299.331L642.708 332.084C640.936 335.745 636.588 337.353 632.861 335.725Z" fill="#FFC999"/>
<path fill-rule="evenodd" clip-rule="evenodd" d="M648.513 320.532L632.225 313.422L641.352 291.453C643.35 286.645 648.903 284.409 653.675 286.492C658.447 288.575 660.584 294.167 658.416 298.902L648.513 320.532Z" fill="#597EF7"/>
<path d="M632.852 314.018C632.905 313.883 633.05 313.811 633.187 313.845L633.224 313.857L649.485 320.272C649.632 320.33 649.705 320.497 649.646 320.644C649.593 320.779 649.449 320.851 649.312 320.817L649.274 320.806L633.013 314.39C632.866 314.332 632.794 314.166 632.852 314.018Z" fill="#253368"/>
<path fill-rule="evenodd" clip-rule="evenodd" d="M636.194 498.518C628.539 501.543 624.752 496.853 624.752 496.853C624.752 496.853 624.573 495.238 625.94 493.467C627.652 491.251 631.368 490.533 635.849 486.321C639.292 483.085 641.63 477.981 641.63 477.981C644.144 474.446 651.659 477.721 651.659 477.721C651.659 477.721 651.769 486.318 651.516 490.559C651.516 490.559 651.183 492.889 645.346 493.594C640.978 494.12 640.779 496.706 636.194 498.518Z" fill="#4E5C93"/>
<path fill-rule="evenodd" clip-rule="evenodd" d="M652.889 479.873L662.478 415.598C663.205 410.039 659.213 404.972 653.639 404.376C648.064 403.781 643.093 407.892 642.63 413.478L637.275 478.072C637.275 478.072 644.97 482.193 652.889 479.873Z" fill="#ADC6FF"/>
<path fill-rule="evenodd" clip-rule="evenodd" d="M651.532 423.294C646.137 422.718 642.2 417.921 642.688 412.517L647.321 361.181C647.862 355.18 653.216 350.787 659.207 351.427C665.197 352.067 669.502 357.491 668.764 363.47L662.453 414.627C661.788 420.013 656.928 423.87 651.532 423.294Z" fill="#ADC6FF"/>
<path fill-rule="evenodd" clip-rule="evenodd" d="M691.485 498.612C699.151 501.608 702.921 496.904 702.921 496.904C702.921 496.904 703.093 495.288 701.72 493.523C700 491.313 696.281 490.609 691.784 486.413C688.33 483.19 685.972 478.096 685.972 478.096C683.445 474.57 675.801 479.048 675.801 479.048C675.801 479.048 675.865 486.47 676.133 490.71C676.133 490.71 676.475 493.04 682.315 493.722C686.684 494.233 686.894 496.818 691.485 498.612Z" fill="#4E5C93"/>
<path fill-rule="evenodd" clip-rule="evenodd" d="M671.932 479.129L668.693 414.395C668.413 408.796 672.797 404.063 678.401 403.916C684.005 403.769 688.632 408.263 688.647 413.869L687.637 478.691C687.637 478.691 679.641 482.075 671.932 479.129Z" fill="#ADC6FF"/>
<path fill-rule="evenodd" clip-rule="evenodd" d="M678.918 423.529C684.342 423.386 688.649 418.919 688.595 413.494L688.081 361.951C688.022 355.927 683.037 351.119 677.014 351.278C670.992 351.437 666.267 356.499 666.525 362.519L668.725 414.017C668.957 419.438 673.493 423.671 678.918 423.529Z" fill="#ADC6FF"/>
<path fill-rule="evenodd" clip-rule="evenodd" d="M685.533 332.167C685.533 332.167 687.956 315.74 689.253 309.19C690.55 302.64 692.916 286.95 690.189 285.893C687.463 284.835 680.327 282.681 680.327 282.681C680.327 282.681 674.621 282.9 668.918 284.352C664.403 285.501 664.921 282.616 659.437 283.745C657.114 284.224 646.87 284.705 646.567 286.945C643.56 309.181 649.71 335.78 649.71 335.78C649.71 335.78 647.614 338.11 650.377 340.917C651.288 341.824 657.406 341.543 664.678 341.274C672.957 340.968 683.248 340.471 684.48 339.978C688.446 338.389 685.533 332.167 685.533 332.167Z" fill="#597EF7"/>
<path fill-rule="evenodd" clip-rule="evenodd" d="M661.935 280.235L667.395 284.518L661.694 290.885L658.423 283.678L661.935 280.235Z" fill="#597EF7"/>
<path fill-rule="evenodd" clip-rule="evenodd" d="M667.263 284.668L672.773 291.776L680.092 282.455L676.705 278.71L667.263 284.668Z" fill="#597EF7"/>
<path d="M666.785 285.772C666.835 285.616 667.002 285.531 667.157 285.582C667.313 285.632 667.398 285.799 667.348 285.954L667.321 286.044C667.306 286.096 667.286 286.166 667.264 286.254L667.246 286.323C667.162 286.652 667.068 287.067 666.967 287.575L666.9 287.92C666.632 289.33 666.365 291.129 666.114 293.359L666.053 293.907C665.486 299.164 665.09 305.966 664.938 314.507L664.922 315.413C664.778 324.687 665.209 332.62 665.886 338.528C665.904 338.69 665.788 338.837 665.626 338.855C665.463 338.874 665.316 338.757 665.298 338.595L665.23 337.985C664.601 332.225 664.205 324.66 664.324 315.875L664.346 314.496C664.504 305.638 664.924 298.642 665.526 293.293L665.589 292.741C665.834 290.658 666.093 288.967 666.352 287.632L666.386 287.459C666.478 286.999 666.564 286.611 666.643 286.293L666.709 286.036C666.743 285.909 666.768 285.822 666.785 285.772Z" fill="#253368"/>
<path d="M673.747 298.766L673.477 298.854C673.354 298.895 673.272 299.012 673.275 299.141L673.292 299.816C673.343 301.699 673.42 303.324 673.515 304.708L673.56 305.329C673.606 305.924 673.654 306.44 673.702 306.881L673.718 307.026C673.738 307.198 673.756 307.348 673.773 307.477L673.804 307.699C673.807 307.72 673.81 307.737 673.812 307.749C673.826 307.833 673.875 307.907 673.947 307.952L678.473 310.787C678.569 310.847 678.689 310.847 678.785 310.788L684.366 307.371C684.45 307.319 684.503 307.229 684.507 307.13L684.845 298.343C684.85 298.196 684.747 298.067 684.603 298.041L684.44 298.013L684.316 297.994C684.087 297.96 683.822 297.926 683.526 297.895C680.426 297.564 676.994 297.732 673.747 298.766ZM683.463 298.483L683.632 298.502L683.886 298.533C683.968 298.543 684.046 298.553 684.12 298.564L684.243 298.582L683.921 306.949L678.632 310.188L674.376 307.522L674.334 307.196L674.306 306.959C674.248 306.447 674.191 305.824 674.135 305.083L674.089 304.422L674.057 303.916C673.99 302.798 673.934 301.538 673.893 300.128L673.872 299.347L673.927 299.33C677.083 298.325 680.438 298.161 683.463 298.483Z" fill="#253368"/>
<path fill-rule="evenodd" clip-rule="evenodd" d="M667.17 290.316C667.182 290.843 667.548 291.262 667.987 291.252C668.426 291.241 668.773 290.806 668.76 290.279C668.748 289.752 668.382 289.333 667.943 289.343C667.504 289.354 667.158 289.789 667.17 290.316Z" fill="white"/>
<path fill-rule="evenodd" clip-rule="evenodd" d="M666.284 300.042C666.296 300.569 666.662 300.988 667.101 300.978C667.54 300.968 667.886 300.532 667.874 300.005C667.861 299.478 667.496 299.059 667.056 299.069C666.617 299.08 666.271 299.515 666.284 300.042Z" fill="white"/>
<path fill-rule="evenodd" clip-rule="evenodd" d="M665.893 310.552C665.905 311.079 666.271 311.498 666.71 311.488C667.149 311.477 667.495 311.042 667.483 310.515C667.47 309.988 667.105 309.569 666.666 309.579C666.226 309.59 665.88 310.025 665.893 310.552Z" fill="white"/>
<path fill-rule="evenodd" clip-rule="evenodd" d="M666.199 321.178C666.211 321.705 666.577 322.124 667.016 322.114C667.455 322.103 667.801 321.668 667.789 321.141C667.776 320.614 667.411 320.195 666.971 320.205C666.532 320.216 666.186 320.651 666.199 321.178Z" fill="white"/>
<path fill-rule="evenodd" clip-rule="evenodd" d="M666.427 333.451C666.44 333.978 666.805 334.397 667.244 334.387C667.683 334.376 668.03 333.941 668.017 333.414C668.005 332.887 667.639 332.468 667.2 332.478C666.761 332.489 666.415 332.924 666.427 333.451Z" fill="white"/>
<path d="M679.771 282.552C679.871 282.423 680.057 282.4 680.186 282.501C680.303 282.593 680.332 282.755 680.261 282.88L680.237 282.916L673.165 291.954C673.056 292.094 672.854 292.105 672.729 291.988L672.7 291.956L667.118 284.932C667.016 284.804 667.037 284.617 667.165 284.516C667.282 284.423 667.446 284.433 667.551 284.531L667.581 284.563L672.93 291.294L679.771 282.552Z" fill="#253368"/>
<path d="M658.343 284.167C658.474 284.113 658.623 284.165 658.693 284.284L658.712 284.321L661.612 291.38L667.045 284.574C667.134 284.463 667.289 284.437 667.408 284.506L667.442 284.53C667.553 284.618 667.58 284.773 667.511 284.892L667.487 284.927L661.754 292.108C661.628 292.266 661.388 292.243 661.29 292.077L661.271 292.039L658.189 284.536C658.13 284.392 658.199 284.227 658.343 284.167Z" fill="#253368"/>
<path d="M645.764 297.513C645.907 297.509 646.029 297.612 646.051 297.749L646.057 297.855L646.084 298.628C646.096 298.967 646.111 299.343 646.128 299.754L646.175 300.866C646.226 302.005 646.285 303.225 646.355 304.511L646.379 304.942C646.676 310.309 647.083 315.675 647.615 320.683L647.702 321.485C648.329 327.195 649.087 332.027 649.984 335.713C650.004 335.792 649.988 335.875 649.942 335.942C648.777 337.609 648.909 338.957 649.82 340.039C649.977 340.225 650.145 340.386 650.313 340.521L650.403 340.592L650.477 340.645L650.597 340.66C653.835 341.048 658.579 341.124 664.442 340.945L665.13 340.923C668.536 340.809 672.168 340.616 675.881 340.366L676.88 340.298C678.532 340.183 680.115 340.063 681.597 339.942L683.414 339.789L684.454 339.696C684.609 339.682 684.747 339.796 684.762 339.951C684.776 340.107 684.662 340.244 684.507 340.259L683.463 340.352C683.115 340.382 682.737 340.415 682.332 340.448L680.741 340.578C679.217 340.698 677.6 340.817 675.919 340.93C672.2 341.18 668.562 341.373 665.149 341.488L664.464 341.51C658.459 341.694 653.62 341.611 650.342 341.198C650.302 341.193 650.263 341.179 650.229 341.158C650.012 341.025 649.7 340.773 649.388 340.403C648.362 339.186 648.174 337.638 649.324 335.848L649.406 335.724L649.372 335.586C648.475 331.82 647.72 326.919 647.097 321.147L647.053 320.743C646.551 316.019 646.161 310.98 645.868 305.922L645.815 304.973C645.734 303.526 645.667 302.158 645.611 300.891L645.532 299.001L645.49 297.805C645.486 297.649 645.608 297.518 645.764 297.513Z" fill="#253368"/>
<path fill-rule="evenodd" clip-rule="evenodd" d="M687.9 361.941L670.713 370.106C670.713 370.106 666.959 371.1 663.96 370.122C659.143 368.55 650.985 366.113 647.61 361.313C647.039 354.241 649.98 344.662 649.98 344.662L650.322 340.386C650.322 340.386 665.712 341.613 684.218 339.383C684.412 341.487 684.981 344.046 684.981 344.046C684.981 344.046 689.2 354.719 687.9 361.941Z" fill="#ADC6FF"/>
<path d="M683.74 343.794C683.76 343.91 683.681 344.019 683.566 344.038L683.091 344.113L682.463 344.207C682.238 344.24 681.999 344.274 681.744 344.31C680.29 344.514 678.659 344.718 676.887 344.908C670.657 345.577 664.348 345.911 658.46 345.73C655.627 345.642 652.968 345.435 650.513 345.097C650.397 345.081 650.316 344.974 650.332 344.858C650.348 344.742 650.455 344.661 650.571 344.677C653.01 345.013 655.654 345.219 658.473 345.306C664.339 345.487 670.63 345.154 676.842 344.487L677.647 344.398C678.973 344.249 680.212 344.094 681.348 343.937L682.231 343.813L683.215 343.665L683.497 343.62C683.612 343.601 683.721 343.679 683.74 343.794Z" fill="#597EF7"/>
<path d="M684.351 339.529C684.364 339.645 684.281 339.75 684.164 339.763L683.329 339.851C683.104 339.874 682.862 339.897 682.604 339.922L682.205 339.961C680.753 340.098 679.135 340.236 677.383 340.365L676.977 340.395C670.219 340.884 663.373 341.127 656.983 340.989C654.646 340.938 652.417 340.837 650.31 340.68C650.193 340.671 650.106 340.57 650.114 340.453C650.123 340.336 650.225 340.249 650.341 340.257C652.44 340.413 654.662 340.515 656.992 340.565C663.367 340.703 670.201 340.461 676.946 339.972C678.851 339.834 680.604 339.687 682.165 339.539L683.114 339.446L684.117 339.342C684.234 339.329 684.338 339.413 684.351 339.529Z" fill="#597EF7"/>
<path d="M666.072 340.811C666.189 340.816 666.28 340.914 666.276 341.031L666.236 342.29C666.221 342.829 666.206 343.421 666.192 344.061C666.088 348.677 666.069 353.518 666.188 358.045L666.208 358.738C666.344 363.316 666.62 367.125 667.058 369.916C667.076 370.031 666.997 370.14 666.882 370.158C666.766 370.176 666.658 370.097 666.64 369.982L666.575 369.552C666.149 366.64 665.887 362.727 665.765 358.056C665.654 353.845 665.662 349.365 665.747 345.045L665.787 343.254C665.8 342.741 665.813 342.264 665.826 341.828L665.852 341.016C665.857 340.899 665.955 340.807 666.072 340.811Z" fill="#597EF7"/>
<path fill-rule="evenodd" clip-rule="evenodd" d="M662.647 343.322C662.659 343.849 663.001 344.268 663.411 344.259C663.821 344.249 664.143 343.814 664.131 343.288C664.119 342.76 663.777 342.341 663.366 342.351C662.956 342.36 662.634 342.795 662.647 343.322Z" fill="white"/>
<path d="M661.761 345.567C661.878 345.574 661.967 345.673 661.961 345.79L661.935 346.365C661.915 346.827 661.895 347.351 661.876 347.927C661.787 350.665 661.759 353.497 661.829 356.141C661.859 357.263 661.906 358.318 661.972 359.296C662.171 362.257 663.091 363.466 666.299 363.757C666.416 363.767 666.501 363.87 666.491 363.987C666.48 364.104 666.377 364.189 666.261 364.179L665.972 364.15C662.76 363.786 661.755 362.385 661.549 359.324C661.483 358.341 661.436 357.28 661.406 356.152C661.342 353.74 661.359 351.173 661.43 348.664L661.452 347.914C661.463 347.584 661.474 347.271 661.486 346.976L661.526 346.014L661.538 345.768C661.544 345.651 661.644 345.561 661.761 345.567Z" fill="#597EF7"/>
<path fill-rule="evenodd" clip-rule="evenodd" d="M694.935 338.64C690.975 339.211 687.258 336.592 686.464 332.671L679.164 296.604C678.136 291.526 681.523 286.608 686.633 285.758C691.807 284.897 696.645 288.551 697.232 293.763L701.353 330.33C701.809 334.378 698.967 338.058 694.935 338.64Z" fill="#FFC999"/>
<path fill-rule="evenodd" clip-rule="evenodd" d="M700.197 317.096L682.607 319.635L678.791 296.153C677.955 291.013 681.498 286.188 686.651 285.444C691.805 284.701 696.567 288.328 697.219 293.494L700.197 317.096Z" fill="#597EF7"/>
<path d="M700.155 316.803C700.316 316.78 700.466 316.892 700.49 317.054C700.511 317.202 700.419 317.341 700.279 317.381L700.239 317.389L682.649 319.927C682.487 319.951 682.337 319.838 682.314 319.677C682.293 319.528 682.385 319.39 682.525 319.35L682.565 319.342L700.155 316.803Z" fill="#253368"/>
<path fill-rule="evenodd" clip-rule="evenodd" d="M667.192 285.236C665.145 286.413 664.366 288.98 665.414 291.096L686.993 334.643C688.95 338.594 693.821 340.091 697.66 337.924C701.563 335.72 702.761 330.658 700.259 326.939L673.129 286.616C671.818 284.669 669.227 284.067 667.192 285.236Z" fill="#FFC999"/>
<path fill-rule="evenodd" clip-rule="evenodd" d="M687.836 332.718C687.766 335.21 685.775 337.222 683.283 337.317L635.849 339.132C631.398 339.302 627.728 335.678 627.843 331.225C627.957 326.78 631.796 323.352 636.225 323.739L683.514 327.867C686.011 328.086 687.906 330.212 687.836 332.718Z" fill="#FFC999"/>
<path fill-rule="evenodd" clip-rule="evenodd" d="M661.572 286.634C661.572 286.634 666.523 294.067 670.696 293.493C674.476 292.973 674.448 288.097 674.448 288.097C674.448 288.097 674.849 283.814 672.37 280.315C670.669 277.915 670.034 272.468 668.547 272.646C666.607 272.877 668.792 278.03 667.788 279.027C665.757 281.048 661.462 273.298 660.086 272.41C657.396 270.675 655.566 277.762 661.572 286.634Z" fill="#FFC999"/>
<path d="M658.829 273.152C658.939 273.113 659.06 273.17 659.1 273.28C659.562 274.582 660.268 275.867 661.153 277.107C661.735 277.923 662.359 278.671 662.983 279.335C663.158 279.52 663.322 279.688 663.474 279.838L663.739 280.093C663.769 280.121 663.793 280.143 663.81 280.158C663.898 280.236 663.905 280.37 663.827 280.457C663.749 280.545 663.615 280.552 663.528 280.474L663.418 280.372C663.381 280.338 663.339 280.298 663.291 280.251C663.105 280.072 662.898 279.862 662.675 279.625C662.038 278.948 661.402 278.186 660.808 277.353C659.902 276.083 659.177 274.765 658.7 273.422C658.661 273.312 658.719 273.191 658.829 273.152Z" fill="#DD936F"/>
<path d="M657.793 275.097C657.905 275.063 658.023 275.126 658.057 275.238L658.091 275.34L658.161 275.533C658.191 275.614 658.226 275.703 658.265 275.798C658.45 276.255 658.69 276.772 658.99 277.338C659.851 278.959 661.025 280.649 662.559 282.322C662.638 282.408 662.632 282.542 662.546 282.621C662.46 282.7 662.326 282.694 662.247 282.608C660.688 280.908 659.493 279.189 658.616 277.537C658.308 276.957 658.062 276.427 657.872 275.957L657.797 275.768C657.774 275.708 657.753 275.652 657.733 275.598L657.667 275.408C657.661 275.389 657.656 275.374 657.652 275.362C657.618 275.25 657.681 275.132 657.793 275.097Z" fill="#DD936F"/>
<path d="M658.196 279.343C658.299 279.289 658.427 279.328 658.482 279.431C659.33 281.027 660.178 282.341 660.983 283.39C661.229 283.711 661.456 283.986 661.659 284.216L661.745 284.313C661.878 284.461 661.971 284.556 662.018 284.601C662.103 284.682 662.106 284.816 662.025 284.901C661.944 284.985 661.81 284.988 661.726 284.908L661.646 284.828L661.546 284.722C661.51 284.684 661.471 284.642 661.43 284.596C661.198 284.339 660.935 284.023 660.647 283.648C659.827 282.581 658.967 281.247 658.108 279.63C658.053 279.527 658.092 279.398 658.196 279.343Z" fill="#DD936F"/>
<path d="M658.598 271.877C659.158 271.567 659.736 271.781 660.273 272.296C660.395 272.412 660.506 272.536 660.604 272.661L660.693 272.778C660.709 272.801 660.722 272.82 660.733 272.837L660.869 273.052L661.078 273.374C661.169 273.514 661.268 273.662 661.372 273.817C661.869 274.554 662.4 275.29 662.944 275.977C663.484 276.66 664.008 277.256 664.502 277.74C665.35 278.57 666.077 279.032 666.619 279.056C667.337 279.088 667.687 278.853 667.826 278.344C667.933 277.955 667.925 277.541 667.82 276.617L667.746 275.986C667.707 275.631 667.688 275.401 667.681 275.156L667.657 274.456C667.611 272.899 667.71 272.682 668.514 272.437L668.546 272.433C668.794 272.412 669.093 272.488 669.376 272.738C669.588 272.927 669.763 273.196 669.891 273.555L669.965 273.783C670.019 273.956 670.118 274.272 670.165 274.419C670.283 274.79 670.397 275.14 670.519 275.498C670.842 276.45 671.179 277.349 671.54 278.195C672.114 279.54 672.708 280.654 673.319 281.471C673.811 282.131 674.148 283.272 674.366 284.77C674.484 285.584 674.56 286.454 674.602 287.326L674.618 287.706C674.631 288.063 674.636 288.352 674.635 288.549C674.635 288.669 674.54 288.763 674.423 288.763C674.318 288.763 674.23 288.686 674.214 288.585L674.212 288.551L674.209 288.24C674.205 288.001 674.195 287.698 674.179 287.347C674.138 286.487 674.063 285.63 673.947 284.831C673.738 283.399 673.418 282.312 672.979 281.724C672.345 280.876 671.736 279.734 671.15 278.361C670.785 277.505 670.444 276.596 670.118 275.635C670.036 275.394 669.957 275.157 669.879 274.915L669.524 273.792C669.415 273.448 669.268 273.209 669.095 273.056C668.927 272.907 668.76 272.854 668.625 272.854L668.588 272.855L668.499 272.884C668.084 273.028 668.04 273.199 668.081 274.448L668.109 275.27C668.116 275.418 668.129 275.572 668.149 275.766L668.256 276.705C668.353 277.595 668.355 278.017 668.235 278.456C668.041 279.162 667.51 279.52 666.6 279.479C665.924 279.449 665.123 278.94 664.206 278.042C663.697 277.545 663.162 276.936 662.612 276.24C662.061 275.544 661.523 274.799 661.021 274.054L660.818 273.751C660.753 273.653 660.691 273.558 660.632 273.467L660.376 273.065L660.326 272.994C660.31 272.973 660.292 272.949 660.272 272.923C660.185 272.814 660.087 272.704 659.98 272.602C659.561 272.201 659.158 272.052 658.803 272.248C658.667 272.324 658.532 272.451 658.4 272.637C658.332 272.732 658.2 272.755 658.105 272.687C658.009 272.619 657.987 272.487 658.054 272.392C658.221 272.157 658.402 271.986 658.598 271.877Z" fill="#DD936F"/>
<path d="M637.74 323.845L680.046 327.514C680.154 327.523 680.234 327.618 680.224 327.726C680.216 327.821 680.14 327.895 680.048 327.904L680.012 327.904L637.707 324.235C637.599 324.226 637.519 324.131 637.528 324.023C637.537 323.927 637.613 323.854 637.705 323.845L637.74 323.845Z" fill="#DD936F"/>
<path fill-rule="evenodd" clip-rule="evenodd" d="M687.128 339.78C687.128 339.78 680.161 337.565 678.042 334.015C675.011 328.937 682.664 327.46 682.664 327.46C682.664 327.46 684.883 326.837 689.863 327.195C692.629 327.394 699.767 328.137 698.923 329.518C697.922 331.153 693.077 329.835 692.874 331.214C692.666 332.63 693.621 333.761 696.202 335.252C697.814 336.183 700.231 336.375 701.447 337.426C703.826 339.48 697.183 342.986 687.128 339.78Z" fill="#FFC999"/>
<path d="M692.905 335.698C692.981 335.621 693.105 335.62 693.182 335.696L693.243 335.753C693.262 335.77 693.284 335.79 693.31 335.812C693.421 335.909 693.554 336.016 693.709 336.132C694.154 336.465 694.685 336.799 695.301 337.111C696.806 337.872 698.561 338.378 700.56 338.508C700.668 338.515 700.75 338.608 700.743 338.716C700.736 338.824 700.643 338.905 700.535 338.898C698.48 338.765 696.674 338.245 695.124 337.46C694.487 337.138 693.936 336.792 693.474 336.446C693.311 336.324 693.171 336.21 693.054 336.108L692.949 336.015C692.932 335.999 692.918 335.985 692.907 335.975C692.83 335.899 692.829 335.775 692.905 335.698Z" fill="#DD936F"/>
<path d="M691.298 337.726C691.357 337.636 691.478 337.61 691.569 337.669C691.875 337.868 692.193 338.052 692.522 338.223C693.716 338.844 694.997 339.262 696.278 339.514C696.663 339.589 697.024 339.645 697.354 339.683L697.516 339.701C697.614 339.711 697.703 339.719 697.784 339.726L697.961 339.737C697.968 339.737 697.974 339.737 697.979 339.738C698.087 339.741 698.172 339.832 698.168 339.94C698.164 340.048 698.074 340.133 697.966 340.129L697.835 340.122L697.667 340.109C697.607 340.104 697.543 340.098 697.476 340.091C697.091 340.051 696.664 339.988 696.203 339.898C694.887 339.64 693.571 339.211 692.341 338.571C692.001 338.394 691.673 338.203 691.356 337.997C691.265 337.938 691.239 337.817 691.298 337.726Z" fill="#DD936F"/>
<path d="M688.927 338.692C688.995 338.608 689.118 338.595 689.202 338.663L689.24 338.692C689.266 338.711 689.3 338.735 689.345 338.766C689.471 338.852 689.626 338.949 689.81 339.053C690.341 339.353 691 339.655 691.796 339.937C692.645 340.237 693.599 340.497 694.664 340.705C694.77 340.726 694.84 340.829 694.819 340.935C694.798 341.041 694.695 341.11 694.589 341.089C693.505 340.878 692.532 340.613 691.665 340.306C690.848 340.016 690.167 339.706 689.617 339.394C689.462 339.306 689.326 339.223 689.208 339.146L689.124 339.089C689.041 339.033 688.985 338.991 688.956 338.968C688.872 338.9 688.859 338.776 688.927 338.692Z" fill="#DD936F"/>
<path d="M682.947 327.362C685.084 326.985 687.434 326.824 689.877 326.999C691.822 327.139 694.062 327.395 695.783 327.721L696.165 327.796C697.093 327.986 697.826 328.194 698.333 328.422C699.057 328.747 699.375 329.154 699.09 329.62C698.668 330.309 697.789 330.58 696.118 330.737L695.112 330.822C693.596 330.954 693.051 331.115 692.994 331.496C692.823 332.663 693.834 333.645 696.726 335.315C697.142 335.556 697.597 335.741 698.189 335.924L698.703 336.074L699.091 336.181C700.403 336.543 701.003 336.783 701.575 337.277C702.942 338.457 701.73 340.002 699.003 340.764C695.996 341.605 691.809 341.435 687.323 340.047L686.995 339.943L686.647 339.823C686.313 339.706 685.942 339.567 685.542 339.407C684.399 338.951 683.257 338.421 682.189 337.821C682.072 337.756 681.957 337.69 681.843 337.623C681.749 337.568 681.718 337.448 681.773 337.355C681.827 337.262 681.947 337.23 682.041 337.285C682.153 337.35 682.266 337.415 682.381 337.48C683.432 338.07 684.56 338.593 685.687 339.043C686.016 339.175 686.326 339.292 686.61 339.394L687.082 339.559L687.188 339.594C691.7 341.032 695.911 341.222 698.898 340.387C701.379 339.693 702.346 338.461 701.319 337.574C700.826 337.148 700.286 336.923 699.129 336.599L698.243 336.349C697.541 336.141 697.015 335.935 696.53 335.655L696.223 335.476C693.419 333.827 692.408 332.792 692.607 331.439C692.708 330.752 693.329 330.575 695.21 330.42L695.93 330.361L696.219 330.334C697.669 330.187 698.436 329.939 698.756 329.416C698.871 329.227 698.71 329.021 698.172 328.779C697.632 328.536 696.793 328.31 695.71 328.106C694.006 327.783 691.78 327.529 689.849 327.39C687.441 327.217 685.122 327.376 683.015 327.748L682.629 327.819C682.317 327.879 682.026 327.941 681.76 328.003L681.603 328.04C681.46 328.075 681.335 328.107 681.228 328.136L681.102 328.172C680.998 328.203 680.889 328.144 680.858 328.04C680.827 327.936 680.886 327.827 680.99 327.796L681.126 327.758L681.304 327.711C681.368 327.694 681.437 327.677 681.511 327.659L681.836 327.583C682.173 327.508 682.544 327.433 682.947 327.362Z" fill="#DD936F"/>
<path d="M659.067 365.15C659.136 365.055 659.269 365.034 659.363 365.103L659.711 365.352L660.159 365.666C660.317 365.776 660.484 365.891 660.658 366.01C661.657 366.69 662.708 367.371 663.762 368.006C664.447 368.419 665.111 368.799 665.747 369.139C666.188 369.375 666.613 369.59 667.019 369.782C667.087 369.815 667.133 369.882 667.139 369.958L667.185 370.581C667.199 370.791 667.213 371.005 667.227 371.222C667.329 372.825 667.402 374.529 667.451 376.244L667.469 376.888C667.479 377.274 667.487 377.644 667.493 377.996L667.508 378.87L667.514 379.463C667.515 379.58 667.421 379.676 667.304 379.676C667.187 379.677 667.091 379.583 667.09 379.466L667.082 378.76L667.064 377.737C667.059 377.467 667.053 377.187 667.045 376.898C666.997 374.972 666.918 373.046 666.804 371.249L666.762 370.61L666.725 370.111L666.587 370.045C666.336 369.922 666.077 369.792 665.813 369.653L665.547 369.512C664.905 369.169 664.234 368.785 663.543 368.369C662.482 367.73 661.425 367.045 660.42 366.36L659.917 366.014L659.264 365.554L659.114 365.446C659.019 365.377 658.998 365.244 659.067 365.15Z" fill="#597EF7"/>
<path d="M56.8369 181.853H104.262C122.031 181.853 136.437 196.258 136.437 214.028C136.437 231.797 122.031 246.203 104.262 246.203H56.8369C39.0672 246.203 24.6619 231.797 24.6619 214.028C24.6619 196.258 39.0672 181.853 56.8369 181.853Z" fill="#4E5C93"/>
<path fill-rule="evenodd" clip-rule="evenodd" d="M120.936 236.843V253.687C120.936 254.428 120.335 255.028 119.595 255.028C119.248 255.028 118.914 254.893 118.664 254.652L106.286 242.709L120.936 236.843Z" fill="#4E5C93"/>
<path d="M102.083 218.05C99.2138 218.05 96.888 215.724 96.888 212.855C96.888 209.986 99.2138 207.66 102.083 207.66C104.952 207.66 107.278 209.986 107.278 212.855C107.278 215.724 104.952 218.05 102.083 218.05Z" fill="white"/>
<path d="M80.8007 218.05C77.9316 218.05 75.6058 215.724 75.6058 212.855C75.6058 209.986 77.9316 207.66 80.8007 207.66C83.6698 207.66 85.9956 209.986 85.9956 212.855C85.9956 215.724 83.6698 218.05 80.8007 218.05Z" fill="white"/>
<path d="M59.0155 218.05C56.1464 218.05 53.8206 215.724 53.8206 212.855C53.8206 209.986 56.1464 207.66 59.0155 207.66C61.8846 207.66 64.2104 209.986 64.2104 212.855C64.2104 215.724 61.8846 218.05 59.0155 218.05Z" fill="white"/>
<path fill-rule="evenodd" clip-rule="evenodd" d="M748.262 444.108H728.658V376.941C728.658 371.595 733.024 367.261 738.409 367.261H738.511C743.897 367.261 748.262 371.595 748.262 376.941V444.108Z" fill="#7CB305"/>
<path fill-rule="evenodd" clip-rule="evenodd" d="M758.011 460.549H738.35V425.476C738.35 420.271 742.619 416.051 747.886 416.051H748.476C753.742 416.051 758.011 420.271 758.011 425.476V460.549Z" fill="#5B8C00"/>
<path fill-rule="evenodd" clip-rule="evenodd" d="M731.534 444.073H711.741V405.94C711.741 400.705 716.022 396.462 721.302 396.462H721.973C727.253 396.462 731.534 400.705 731.534 405.94V444.073Z" fill="#7CB305"/>
<path fill-rule="evenodd" clip-rule="evenodd" d="M759.181 499.782H707.693C705.658 499.782 704.008 498.149 704.008 496.135V445.485C704.008 443.471 705.658 441.839 707.693 441.839H759.181C761.216 441.839 762.866 443.471 762.866 445.485V496.135C762.866 498.149 761.216 499.782 759.181 499.782Z" fill="#253368"/>
<path fill-rule="evenodd" clip-rule="evenodd" d="M218.646 276.166L222.799 260.408C222.799 260.408 229.835 247.556 232.473 248.29C234.929 249.313 229.486 253.054 228.458 256.668C230.775 256.46 229.784 259.929 229.784 259.929C229.784 259.929 231.63 259.828 231.184 262.649C232.916 263.633 231.601 266.884 231.601 266.884C231.601 266.884 228.309 275.446 224.595 281.183C224.595 281.183 218.352 286.187 218.646 276.166Z" fill="#997C79"/>
<path fill-rule="evenodd" clip-rule="evenodd" d="M219.536 270.851C219.536 270.851 220.101 265.462 220.546 262.714C220.992 259.966 219.746 255.04 221.766 256.315C223.125 257.172 222.945 260.119 222.936 262.289C222.927 264.461 226.524 269.541 223.977 273.148C222.256 275.585 219.478 275.952 219.536 270.851Z" fill="#997C79"/>
<path d="M228.61 256.503C228.701 256.586 228.707 256.728 228.624 256.819L228.498 256.96L228.338 257.143C228.282 257.209 228.224 257.278 228.163 257.35C227.816 257.764 227.469 258.206 227.145 258.659C226.826 259.105 226.547 259.538 226.32 259.946C225.521 261.385 225.462 262.316 226.272 262.637C226.387 262.683 226.444 262.813 226.398 262.928C226.353 263.043 226.222 263.1 226.107 263.054C224.936 262.59 225.013 261.376 225.928 259.728C226.164 259.304 226.452 258.858 226.781 258.398C227.112 257.936 227.465 257.484 227.819 257.062C227.912 256.951 228 256.848 228.082 256.754L228.293 256.516C228.377 256.425 228.519 256.419 228.61 256.503Z" fill="#604346"/>
<path d="M229.427 259.862C229.524 259.785 229.665 259.801 229.742 259.898C229.819 259.995 229.803 260.136 229.706 260.213L229.573 260.322L229.403 260.464C229.343 260.515 229.281 260.568 229.217 260.625C228.848 260.947 228.48 261.291 228.137 261.645C227.778 262.014 227.468 262.371 227.222 262.707C226.525 263.656 226.415 264.296 226.947 264.609C227.148 264.727 227.369 264.757 227.618 264.705C228.02 264.623 228.47 264.335 228.929 263.906C229.129 263.719 229.317 263.519 229.487 263.318L229.601 263.18C229.644 263.126 229.677 263.083 229.698 263.054C229.771 262.954 229.912 262.932 230.011 263.006C230.111 263.079 230.133 263.219 230.06 263.319L229.985 263.417C229.943 263.47 229.891 263.534 229.829 263.607C229.649 263.821 229.449 264.034 229.235 264.234C228.721 264.714 228.208 265.042 227.709 265.145C227.355 265.217 227.021 265.172 226.719 264.995C225.87 264.495 226.027 263.577 226.86 262.442C227.12 262.087 227.444 261.715 227.815 261.332C228.168 260.969 228.545 260.617 228.922 260.287L229.112 260.123L229.385 259.895C229.402 259.881 229.416 259.87 229.427 259.862Z" fill="#604346"/>
<path d="M230.53 262.645C230.652 262.623 230.768 262.704 230.79 262.826C230.811 262.948 230.73 263.065 230.608 263.086C230.222 263.154 229.744 263.505 229.181 264.193L229.021 264.392C227.972 265.728 227.772 266.595 228.155 266.81C228.556 267.035 229.448 266.608 230.008 265.776C230.163 265.545 230.517 265.748 230.395 265.999C229.668 267.501 228.796 268.51 227.673 269.3C227.447 269.459 227.213 269.608 226.95 269.764L226.71 269.902L225.942 270.325L225.706 270.458C224.096 271.382 223.448 272.181 223.108 274.052C223.086 274.174 222.969 274.255 222.847 274.233C222.725 274.21 222.645 274.094 222.667 273.972C223.043 271.907 223.8 271.015 225.601 270.002L226.41 269.557C226.463 269.527 226.514 269.498 226.565 269.469C226.885 269.285 227.156 269.115 227.415 268.933C228.072 268.471 228.638 267.93 229.137 267.246L229.265 267.066L229.188 267.106C228.756 267.323 228.324 267.381 227.996 267.231L227.936 267.201C227.178 266.776 227.49 265.549 228.834 263.909C229.459 263.146 230.019 262.735 230.53 262.645Z" fill="#604346"/>
<path d="M222.924 259.353C223.035 259.342 223.135 259.413 223.163 259.518L223.17 259.553L223.582 263.627L223.695 263.819C223.722 263.867 223.751 263.917 223.78 263.971C223.948 264.277 224.116 264.617 224.273 264.984C224.724 266.041 224.995 267.1 224.993 268.098C224.992 268.836 224.838 269.513 224.512 270.11C224.452 270.218 224.316 270.258 224.208 270.199C224.099 270.139 224.059 270.003 224.118 269.894C224.407 269.367 224.544 268.764 224.545 268.097C224.547 267.169 224.29 266.166 223.86 265.16C223.71 264.808 223.548 264.48 223.387 264.187L223.289 264.012C223.24 263.927 223.201 263.863 223.176 263.823C223.163 263.803 223.153 263.782 223.147 263.759L223.141 263.725L222.724 259.598C222.712 259.475 222.801 259.365 222.924 259.353Z" fill="#604346"/>
<path fill-rule="evenodd" clip-rule="evenodd" d="M110.721 324.625C107.078 322.271 105.958 317.452 108.19 313.733L126.979 282.409C129.672 277.921 135.547 276.555 139.944 279.395C144.34 282.236 145.509 288.152 142.525 292.452L121.691 322.457C119.218 326.019 114.365 326.979 110.721 324.625Z" fill="#ADC6FF"/>
<path fill-rule="evenodd" clip-rule="evenodd" d="M153.108 349.233L144.372 357.418L109.744 323.445C106.483 320.246 106.544 314.974 109.877 311.851C113.21 308.728 118.475 309.01 121.455 312.471L153.108 349.233Z" fill="#ADC6FF"/>
<path d="M151.764 351.544C151.884 351.431 152.074 351.437 152.186 351.558C152.289 351.667 152.293 351.833 152.203 351.947L152.173 351.98L143.685 359.934C143.564 360.046 143.375 360.04 143.262 359.92C143.16 359.81 143.156 359.644 143.246 359.53L143.276 359.498L151.764 351.544Z" fill="#597EF7"/>
<path d="M146.923 347.471C147.043 347.359 147.232 347.365 147.345 347.485C147.448 347.595 147.452 347.761 147.361 347.875L147.331 347.908L139.718 355.041C139.598 355.154 139.409 355.148 139.296 355.027C139.193 354.918 139.189 354.752 139.28 354.638L139.31 354.605L146.923 347.471Z" fill="#597EF7"/>
<path fill-rule="evenodd" clip-rule="evenodd" d="M142.494 356.056C142.845 356.43 143.434 356.45 143.809 356.099C144.184 355.747 144.203 355.158 143.852 354.783C143.501 354.408 142.912 354.389 142.536 354.74C142.162 355.092 142.143 355.68 142.494 356.056Z" fill="white"/>
<path fill-rule="evenodd" clip-rule="evenodd" d="M164.577 272.526L164.173 262.935L149.791 258.807L148.822 272.352C148.593 275.559 150.957 278.644 153.927 279.876C154.235 280.004 154.554 280.12 154.885 280.219C159.86 281.71 164.796 277.716 164.577 272.526Z" fill="#997C79"/>
<path fill-rule="evenodd" clip-rule="evenodd" d="M145.415 252.478C147.126 262.826 154.4 267.381 161.298 267.612C169.522 267.887 171.243 260.791 170.615 250.56C169.977 240.171 165.455 236.699 157.726 236.585C149.668 236.466 143.681 241.996 145.415 252.478Z" fill="#997C79"/>
<path fill-rule="evenodd" clip-rule="evenodd" d="M151.117 253.911C150.863 253.105 150.611 251.751 149.305 251.23C147.505 250.513 145.957 252.559 146.242 254.728C146.588 257.356 148.937 258.917 150.252 258.908C150.157 261.49 149.379 262.866 149.379 262.866C149.379 262.866 147.037 260.044 145.363 255.615C142.753 248.706 144.185 238.963 151.958 236.628C164.109 233.352 168.767 242.409 168.767 242.409L153.654 242.402L154.108 247.447C154.108 247.447 151.416 247.633 152.044 253.603L151.117 253.911Z" fill="#604346"/>
<path d="M162.098 248.274C162.263 248.269 162.401 248.398 162.407 248.563C162.412 248.714 162.304 248.843 162.159 248.867L162.119 248.872L157.463 249.035L156.003 249.508C155.859 249.555 155.705 249.486 155.641 249.354L155.626 249.316C155.58 249.172 155.648 249.018 155.781 248.955L155.818 248.94L157.319 248.454L157.401 248.439L162.098 248.274Z" fill="#604346"/>
<path fill-rule="evenodd" clip-rule="evenodd" d="M155.264 261.849C156.962 259.376 156.779 257.19 163.931 257.227C167.411 257.246 168.65 258.375 169.931 261.143C169.033 265.44 165.566 268.187 160.916 267.888C151.148 267.261 150.579 257.504 150.579 257.504C150.579 257.504 151.959 257.838 152.412 258.565C153.666 260.572 154.473 261.069 155.264 261.849Z" fill="#7C5B4D"/>
<path fill-rule="evenodd" clip-rule="evenodd" d="M166.384 259.222C166.384 259.222 163.861 259.407 159.989 259.096C159.989 259.096 160.577 260.69 163.365 260.672C165.552 260.658 166.384 259.222 166.384 259.222Z" fill="white"/>
<path d="M160.013 258.798C159.796 258.78 159.633 258.994 159.709 259.199C159.799 259.443 160.023 259.784 160.435 260.116C161.11 260.66 162.074 260.979 163.367 260.971C164.385 260.964 165.215 260.672 165.866 260.187C166.266 259.889 166.519 259.586 166.643 259.372C166.756 259.177 166.62 258.937 166.404 258.924L166.347 258.925L166.05 258.942L165.839 258.951C164.288 259.011 162.308 258.982 160.013 258.798ZM160.582 259.44L160.857 259.459C162.601 259.573 164.143 259.597 165.43 259.562L165.698 259.554L165.621 259.62C165.585 259.65 165.547 259.679 165.509 259.708C164.958 260.118 164.25 260.367 163.363 260.373C162.204 260.381 161.375 260.106 160.811 259.651C160.748 259.6 160.69 259.549 160.636 259.496L160.582 259.44Z" fill="#604346"/>
<path d="M165.489 248.411C165.53 248.252 165.694 248.156 165.853 248.197C166 248.235 166.092 248.375 166.075 248.522L166.067 248.562L165.647 250.179L166.91 256.234C167.034 256.827 166.61 257.389 166.015 257.441L165.95 257.445L162.171 257.538C162.006 257.542 161.869 257.411 161.865 257.246C161.862 257.095 161.971 256.967 162.116 256.944L162.157 256.94L165.936 256.847C166.175 256.841 166.354 256.634 166.332 256.402L166.325 256.356L165.047 250.233C165.041 250.203 165.04 250.173 165.043 250.142L165.051 250.097L165.489 248.411Z" fill="#604346"/>
<path d="M164.132 262.251C164.297 262.246 164.435 262.376 164.44 262.541C164.444 262.692 164.335 262.82 164.19 262.844L164.15 262.848L162.342 262.901C162.177 262.906 162.039 262.776 162.034 262.611C162.03 262.46 162.139 262.331 162.284 262.307L162.324 262.303L164.132 262.251Z" fill="#604346"/>
<path d="M169.976 248.025C170.141 248.018 170.28 248.147 170.287 248.312C170.293 248.463 170.186 248.592 170.041 248.618L170.001 248.622L166.014 248.784C165.849 248.79 165.71 248.662 165.704 248.497C165.697 248.346 165.805 248.217 165.95 248.191L165.99 248.187L169.976 248.025Z" fill="#604346"/>
<path d="M155.266 266.283C155.325 266.174 155.462 266.135 155.57 266.195C158.306 267.706 161.06 267.976 163.454 267.532C163.625 267.501 163.779 267.467 163.916 267.434L164.016 267.409C164.111 267.384 164.175 267.365 164.206 267.355C164.324 267.316 164.45 267.381 164.489 267.498C164.527 267.616 164.463 267.742 164.346 267.781L164.282 267.8C164.256 267.808 164.224 267.817 164.188 267.827L164.129 267.843C163.958 267.887 163.759 267.932 163.536 267.973C161.047 268.434 158.19 268.154 155.353 266.587C155.245 266.527 155.206 266.391 155.266 266.283Z" fill="#604346"/>
<path d="M148.243 252.346C148.564 252.297 148.921 252.33 149.263 252.507C149.867 252.82 150.254 253.508 150.336 254.63C150.345 254.746 150.263 254.85 150.148 254.868C149.568 254.961 149.293 255.194 149.261 255.504C149.231 255.788 149.408 256.139 149.706 256.384C149.802 256.463 149.816 256.604 149.737 256.7C149.659 256.795 149.517 256.809 149.422 256.731C149.015 256.397 148.768 255.906 148.815 255.458C148.864 254.99 149.209 254.644 149.806 254.483L149.87 254.467L149.866 254.428C149.77 253.635 149.499 253.164 149.113 252.936L149.057 252.905C148.811 252.777 148.546 252.753 148.31 252.789L148.249 252.8C148.13 252.832 148.007 252.761 147.975 252.641C147.943 252.521 148.015 252.399 148.134 252.367L148.179 252.357C148.197 252.353 148.219 252.349 148.243 252.346Z" fill="#604346"/>
<path d="M160 251.417C160.165 251.415 160.3 251.548 160.301 251.713C160.306 252.606 159.747 253.362 159.003 253.367C158.258 253.371 157.689 252.623 157.684 251.73C157.683 251.565 157.815 251.431 157.981 251.43C158.146 251.429 158.28 251.562 158.281 251.727C158.285 252.321 158.628 252.771 158.999 252.769C159.37 252.767 159.707 252.311 159.703 251.717C159.702 251.552 159.835 251.418 160 251.417Z" fill="#604346"/>
<path d="M168.749 251.191C168.914 251.19 169.048 251.323 169.05 251.488C169.055 252.381 168.496 253.137 167.752 253.142C167.007 253.146 166.438 252.398 166.432 251.505C166.431 251.34 166.564 251.206 166.729 251.205C166.894 251.204 167.029 251.336 167.03 251.501C167.034 252.095 167.377 252.546 167.748 252.544C168.119 252.542 168.456 252.086 168.452 251.492C168.451 251.327 168.584 251.192 168.749 251.191Z" fill="#604346"/>
<path fill-rule="evenodd" clip-rule="evenodd" d="M189.6 484.647C189.6 484.647 194.508 494.482 204.529 496.218C211.09 497.355 204.693 503.595 193.178 501.634C186.614 500.516 187.951 497.141 184.32 497.225C182.215 497.273 177.956 496.291 177.709 494.704C177.28 491.93 177.164 491.153 176.874 487.905C175.159 468.663 182.682 467.805 189.6 484.647Z" fill="#253368"/>
<path fill-rule="evenodd" clip-rule="evenodd" d="M140.176 338.683C140.176 338.683 169.445 339.062 173.445 339.038C175.529 339.025 178.859 352.735 179.925 361.31C178.51 363.944 164.628 368.349 158.646 370.866C156.384 371.817 154.358 371.191 154.358 371.191C151.403 371.868 133.986 361.609 133.986 361.609C133.986 361.609 135.289 346.343 140.176 338.683Z" fill="#4E5C93"/>
<path fill-rule="evenodd" clip-rule="evenodd" d="M174.151 335.387L174.177 339.425C174.177 339.425 171.214 341.51 159.942 341.92C149.096 342.314 139.73 339.134 139.73 339.134L140.598 334.641C140.598 334.641 154.152 339.555 174.151 335.387Z" fill="black"/>
<path fill-rule="evenodd" clip-rule="evenodd" d="M164.496 340.767L164.565 337.833C164.584 337.007 163.93 336.338 163.14 336.383C161.246 336.487 157.899 336.616 155.474 336.392C154.681 336.319 154.004 336.981 154.009 337.812L154.029 340.81C154.034 341.511 154.526 342.1 155.19 342.204C156.767 342.452 159.808 342.744 163.351 342.135C163.997 342.023 164.481 341.45 164.496 340.767Z" fill="#E4EBF7"/>
<path fill-rule="evenodd" clip-rule="evenodd" d="M163.28 340.373L163.334 338.298C163.349 337.713 162.845 337.241 162.235 337.272C160.774 337.348 158.192 337.44 156.32 337.282C155.709 337.23 155.187 337.7 155.191 338.288L155.204 340.408C155.207 340.904 155.588 341.32 156.099 341.394C157.316 341.568 159.662 341.774 162.396 341.341C162.894 341.262 163.267 340.856 163.28 340.373Z" fill="black"/>
<path fill-rule="evenodd" clip-rule="evenodd" d="M205.039 319.901C201.845 322.835 196.899 322.707 193.861 319.611L168.272 293.545C164.605 289.81 164.761 283.78 168.616 280.24C172.471 276.7 178.492 277.057 181.902 281.027L205.7 308.738C208.527 312.028 208.234 316.967 205.039 319.901Z" fill="#ADC6FF"/>
<path fill-rule="evenodd" clip-rule="evenodd" d="M217.981 273.302L227.685 279.047L207.169 318.431C204.944 322.4 199.866 323.726 195.984 321.352C192.074 318.961 190.958 313.786 193.535 309.996L217.981 273.302Z" fill="#ADC6FF"/>
<path d="M217.8 273.194C217.879 273.065 218.04 273.018 218.175 273.077L218.211 273.096L227.168 278.629C227.309 278.716 227.352 278.9 227.266 279.04C227.186 279.169 227.025 279.216 226.89 279.156L226.854 279.137L217.897 273.605C217.756 273.518 217.713 273.334 217.8 273.194Z" fill="#597EF7"/>
<path d="M215.78 278.278C215.859 278.149 216.02 278.101 216.155 278.16L216.191 278.179L225.092 283.623C225.232 283.709 225.277 283.893 225.191 284.033C225.112 284.163 224.95 284.211 224.816 284.151L224.78 284.133L215.879 278.689C215.738 278.603 215.694 278.419 215.78 278.278Z" fill="#597EF7"/>
<path fill-rule="evenodd" clip-rule="evenodd" d="M223.531 279.257C223.799 278.818 224.372 278.68 224.81 278.948C225.248 279.217 225.386 279.789 225.118 280.228C224.85 280.666 224.277 280.804 223.839 280.536C223.4 280.268 223.262 279.696 223.531 279.257Z" fill="white"/>
<path fill-rule="evenodd" clip-rule="evenodd" d="M175.617 424.307C180.748 423.704 184.489 419.159 184.094 414.008L180.111 361.984C179.601 355.328 173.656 350.434 167.026 351.213C160.396 351.992 155.747 358.132 156.795 364.725L164.983 416.254C165.793 421.357 170.486 424.91 175.617 424.307Z" fill="#4E5C93"/>
<path fill-rule="evenodd" clip-rule="evenodd" d="M175.812 484.818L165.253 418.293C164.438 412.94 168.239 407.983 173.621 407.382C178.943 406.789 183.71 410.693 184.176 416.028L189.436 483.26C189.436 483.26 184.326 487.03 175.812 484.818Z" fill="#4E5C93"/>
<path fill-rule="evenodd" clip-rule="evenodd" d="M117.221 485.763C117.221 485.763 113.032 495.925 103.161 498.376C96.6984 499.981 103.527 505.746 114.871 502.963C121.339 501.377 119.763 498.106 123.39 497.929C125.494 497.826 129.672 496.541 129.803 494.94C130.032 492.143 130.092 491.359 130.148 488.099C130.478 468.784 122.912 468.467 117.221 485.763Z" fill="#253368"/>
<path fill-rule="evenodd" clip-rule="evenodd" d="M135.324 423.216C130.228 422.366 126.711 417.646 127.353 412.52L133.843 360.749C134.674 354.126 140.85 349.524 147.434 350.623C154.018 351.721 158.365 358.078 157.001 364.612L146.334 415.686C145.278 420.744 140.419 424.066 135.324 423.216Z" fill="#4E5C93"/>
<path fill-rule="evenodd" clip-rule="evenodd" d="M132.032 485.274L145.945 418.014C147.009 412.704 143.441 407.576 138.093 406.727C132.804 405.886 127.861 409.565 127.147 414.873L117.907 482.931C117.907 482.931 123.425 487.089 132.032 485.274Z" fill="#4E5C93"/>
<path d="M199.147 301.222C199.238 301.084 199.423 301.046 199.561 301.136C199.686 301.219 199.729 301.379 199.668 301.511L199.646 301.55L196.314 306.62C196.223 306.758 196.038 306.796 195.9 306.706C195.775 306.623 195.732 306.463 195.793 306.33L195.815 306.292L199.147 301.222Z" fill="#597EF7"/>
<path d="M164.949 368.521C165.109 368.482 165.271 368.581 165.31 368.741C165.345 368.888 165.266 369.036 165.129 369.09L165.09 369.102L155.826 371.35C155.666 371.388 155.504 371.29 155.465 371.13C155.43 370.983 155.509 370.835 155.646 370.781L155.685 370.769L164.949 368.521Z" fill="black"/>
<path fill-rule="evenodd" clip-rule="evenodd" d="M175.916 328.195C175.916 328.195 183.342 295.611 179.727 279.191C176.38 278.269 172.644 276.881 165.279 274.693C163.727 274.232 159.911 277.385 157.999 277.306C155.171 277.19 152.695 274.195 150.007 274.463C136.961 275.767 130.798 279.148 130.798 279.148L133.971 304.057L139.31 326.763C139.31 326.763 135.137 334.046 145.097 336.407C154.311 338.59 168.943 338.488 174.448 335.273C176.846 333.872 177.111 331.303 175.916 328.195Z" fill="#ADC6FF"/>
<path fill-rule="evenodd" clip-rule="evenodd" d="M164.501 272.511L167.236 275.947L163.316 283.381L157.134 277.28L164.501 272.511Z" fill="#ADC6FF"/>
<path fill-rule="evenodd" clip-rule="evenodd" d="M157.134 277.279L148.742 272.414L145.941 275.757L151.558 282.974L157.134 277.279Z" fill="#ADC6FF"/>
<path fill-rule="evenodd" clip-rule="evenodd" d="M161.85 282.066L157.132 277.328L152.478 282.211L155.228 286.873L160.511 286.778L161.85 282.066Z" fill="#253368"/>
<path fill-rule="evenodd" clip-rule="evenodd" d="M160.482 286.738L155.258 286.674L152.769 318.422C152.714 319.11 152.906 319.794 153.309 320.354L158.462 327.515C159.32 328.707 161.117 328.635 161.877 327.378L166.244 320.151C166.619 319.531 166.749 318.794 166.61 318.082L160.482 286.738Z" fill="#253368"/>
<path d="M145.757 275.52C145.876 275.428 146.042 275.439 146.147 275.54L146.177 275.573L151.584 282.522L156.92 277.118C157.024 277.013 157.187 277.001 157.305 277.084L157.339 277.111L163.261 282.747L166.972 275.806C167.044 275.672 167.202 275.615 167.34 275.667L167.377 275.683C167.51 275.755 167.568 275.913 167.516 276.051L167.5 276.088L163.603 283.375C163.516 283.537 163.309 283.581 163.165 283.478L163.133 283.451L157.139 277.746L151.771 283.185C151.655 283.302 151.468 283.302 151.352 283.191L151.322 283.158L145.705 275.94C145.604 275.809 145.627 275.622 145.757 275.52Z" fill="#597EF7"/>
<path d="M160.091 286.64C160.202 286.64 160.291 286.728 160.292 286.838C160.293 286.936 160.223 287.018 160.13 287.035L160.094 287.039L155.542 287.068C155.432 287.069 155.343 286.98 155.342 286.87C155.341 286.772 155.411 286.691 155.504 286.673L155.54 286.67L160.091 286.64Z" fill="#597EF7"/>
<path d="M180.306 288.312C180.471 288.307 180.609 288.436 180.614 288.601C180.698 291.252 180.655 294.076 180.496 297.052C180.168 303.207 179.361 309.785 178.221 316.455C177.689 319.571 177.118 322.503 176.548 325.164L176.372 325.974C176.258 326.497 176.149 326.981 176.047 327.426L175.898 328.065L175.814 328.417L175.874 328.529L175.906 328.594C176.018 328.815 176.13 329.065 176.234 329.336C176.642 330.397 176.824 331.483 176.648 332.51C176.41 333.906 175.528 335.033 173.9 335.773C173.75 335.842 173.573 335.775 173.505 335.625C173.436 335.475 173.503 335.297 173.653 335.229C175.102 334.57 175.855 333.609 176.059 332.41C176.214 331.505 176.049 330.52 175.677 329.55C175.58 329.298 175.476 329.068 175.373 328.863L175.293 328.71C175.27 328.668 175.252 328.637 175.24 328.616C175.199 328.548 175.187 328.467 175.206 328.391L175.347 327.797L175.516 327.068C175.654 326.459 175.804 325.781 175.964 325.038C176.532 322.386 177.101 319.462 177.632 316.354C178.768 309.705 179.572 303.15 179.899 297.02C180.057 294.061 180.1 291.253 180.017 288.62C180.012 288.455 180.141 288.317 180.306 288.312Z" fill="#597EF7"/>
<path d="M138.054 297.302C138.144 297.164 138.33 297.126 138.468 297.217C138.593 297.299 138.636 297.46 138.575 297.592L138.553 297.63L134.221 304.221C134.13 304.359 133.945 304.398 133.807 304.307C133.681 304.225 133.638 304.064 133.7 303.932L133.721 303.893L138.054 297.302Z" fill="#597EF7"/>
<path d="M131.645 278.533C131.936 278.558 132.426 278.668 133.047 278.924C134.071 279.346 135.091 280.036 136.041 281.051C137.6 282.718 138.811 285.099 139.545 288.306C139.582 288.467 139.481 288.627 139.321 288.664C139.16 288.701 138.999 288.6 138.963 288.44C138.251 285.332 137.088 283.046 135.604 281.459C134.715 280.508 133.766 279.867 132.819 279.476C132.49 279.341 132.186 279.246 131.915 279.185L131.791 279.159C131.698 279.141 131.632 279.132 131.594 279.128C131.43 279.115 131.308 278.97 131.322 278.806C131.334 278.655 131.457 278.54 131.604 278.532L131.645 278.533Z" fill="#597EF7"/>
<g opacity="0.5">
<path d="M800.935 121.513V162.048" stroke="white" stroke-width="6" stroke-linecap="round" stroke-linejoin="round"/>
<path d="M808.454 125.939H714.951C712.854 125.939 711.154 127.639 711.154 129.736V172.806C711.154 174.902 712.854 176.602 714.951 176.602H808.454C810.551 176.602 812.251 174.902 812.251 172.806V129.736C812.251 127.639 810.551 125.939 808.454 125.939Z" fill="#597EF7"/>
<path d="M795.793 138.596H752.92C752.221 138.596 751.654 139.162 751.654 139.861V142.393C751.654 143.092 752.221 143.658 752.92 143.658H795.793C796.492 143.658 797.059 143.092 797.059 142.393V139.861C797.059 139.162 796.492 138.596 795.793 138.596Z" fill="#2F54EB"/>
<path d="M775.859 158.846H752.92C752.221 158.846 751.654 159.412 751.654 160.111V162.643C751.654 163.342 752.221 163.908 752.92 163.908H775.859C776.558 163.908 777.125 163.342 777.125 162.643V160.111C777.125 159.412 776.558 158.846 775.859 158.846Z" fill="#597EF7"/>
<path d="M795.793 148.721H752.92C752.221 148.721 751.654 149.287 751.654 149.986V152.518C751.654 153.217 752.221 153.783 752.92 153.783H795.793C796.492 153.783 797.059 153.217 797.059 152.518V149.986C797.059 149.287 796.492 148.721 795.793 148.721Z" fill="#2F54EB"/>
<path d="M735.201 138.596H720.014C718.616 138.596 717.482 139.729 717.482 141.127V156.314C717.482 157.712 718.616 158.846 720.014 158.846H735.201C736.599 158.846 737.732 157.712 737.732 156.314V141.127C737.732 139.729 736.599 138.596 735.201 138.596Z" fill="#2F54EB"/>
<path d="M744.14 138.596V171.556" stroke="white" stroke-width="6" stroke-linecap="round" stroke-linejoin="round"/>
<path d="M792.001 156.827H698.498C696.401 156.827 694.701 158.527 694.701 160.624V203.693C694.701 205.79 696.401 207.49 698.498 207.49H792.001C794.098 207.49 795.798 205.79 795.798 203.693V160.624C795.798 158.527 794.098 156.827 792.001 156.827Z" fill="#E4EBF7"/>
<path d="M779.34 169.483H736.467C735.768 169.483 735.201 170.05 735.201 170.749V173.28C735.201 173.979 735.768 174.546 736.467 174.546H779.34C780.039 174.546 780.605 173.979 780.605 173.28V170.749C780.605 170.05 780.039 169.483 779.34 169.483Z" fill="#597EF7"/>
<path d="M759.406 189.733H736.467C735.768 189.733 735.201 190.3 735.201 190.999V193.53C735.201 194.229 735.768 194.796 736.467 194.796H759.406C760.105 194.796 760.672 194.229 760.672 193.53V190.999C760.672 190.3 760.105 189.733 759.406 189.733Z" fill="#597EF7"/>
<path d="M779.34 179.608H736.467C735.768 179.608 735.201 180.175 735.201 180.874V183.405C735.201 184.104 735.768 184.671 736.467 184.671H779.34C780.039 184.671 780.605 184.104 780.605 183.405V180.874C780.605 180.175 780.039 179.608 779.34 179.608Z" fill="#597EF7"/>
<path d="M718.748 169.483H703.561C702.163 169.483 701.029 170.617 701.029 172.015V187.202C701.029 188.6 702.163 189.733 703.561 189.733H718.748C720.146 189.733 721.279 188.6 721.279 187.202V172.015C721.279 170.617 720.146 169.483 718.748 169.483Z" fill="#597EF7"/>
<path d="M727.687 169.483V202.443" stroke="white" stroke-width="6" stroke-linecap="round" stroke-linejoin="round"/>
</g>
</g>
<defs>
<clipPath id="clip0_201_10530">
<rect width="809" height="566" fill="white"/>
</clipPath>
</defs>
</svg>
